<svg width="70" height="21" viewBox="0 0 70 21" fill="none" xmlns="http://www.w3.org/2000/svg">
<path fill-rule="evenodd" clip-rule="evenodd" d="M42.9494 16.3147C38.9263 19.2801 33.0951 20.8622 28.0745 20.8622C21.0347 20.8622 14.6972 18.2585 9.9026 13.928C9.52595 13.5874 9.86345 13.1233 10.3155 13.3886C15.4898 16.3991 21.8876 18.2103 28.4964 18.2103C32.9535 18.2103 37.8565 17.2882 42.3648 15.3745C43.0458 15.0852 43.6154 15.8205 42.9494 16.3147Z" fill="white"/>
<path fill-rule="evenodd" clip-rule="evenodd" d="M44.6221 14.403C44.1097 13.746 41.2227 14.0926 39.9268 14.2463C39.532 14.2946 39.4718 13.951 39.8274 13.7039C42.1267 12.0856 45.8998 12.5527 46.3397 13.0952C46.7797 13.6406 46.2252 17.4226 44.0644 19.2278C43.7329 19.505 43.4165 19.3574 43.5642 18.9897C44.0494 17.7783 45.1373 15.063 44.6221 14.403Z" fill="white"/>
<path fill-rule="evenodd" clip-rule="evenodd" d="M40.0172 2.2782V0.705151C40.0172 0.467101 40.198 0.307349 40.415 0.307349H47.4577C47.6838 0.307349 47.8646 0.470026 47.8646 0.705151V2.05215C47.8615 2.2782 47.6717 2.57355 47.3342 3.04065L43.6848 8.25112C45.0409 8.21797 46.4723 8.41987 47.7018 9.11302C47.9791 9.2697 48.0544 9.49875 48.0755 9.72472V11.4033C48.0755 11.6324 47.8224 11.9005 47.5572 11.7619C45.3904 10.6258 42.5125 10.5022 40.1167 11.7739C39.8726 11.9066 39.6164 11.6414 39.6164 11.4124V9.81818C39.6164 9.56205 39.6194 9.1251 39.8755 8.7363L44.1036 2.673H40.424C40.198 2.673 40.0172 2.51333 40.0172 2.2782ZM14.3266 12.0934H12.1839C11.979 12.0784 11.8162 11.9247 11.8012 11.7288V0.732301C11.8012 0.512251 11.985 0.3375 12.214 0.3375H14.212C14.42 0.3465 14.5857 0.50625 14.6008 0.705075V2.14268H14.64C15.1613 0.753375 16.1407 0.105526 17.4607 0.105526C18.8017 0.105526 19.6395 0.753375 20.2422 2.14268C20.7605 0.753375 21.9388 0.105526 23.2015 0.105526C24.0995 0.105526 25.082 0.476175 25.6816 1.30792C26.3597 2.23305 26.2211 3.57713 26.2211 4.75545L26.218 11.6956C26.218 11.9157 26.0343 12.0935 25.8052 12.0935H23.6656C23.4517 12.0785 23.2798 11.9067 23.2798 11.6956V5.8674C23.2798 5.4033 23.3221 4.24605 23.2196 3.8061C23.0599 3.0678 22.5808 2.85983 21.9599 2.85983C21.4416 2.85983 20.8991 3.2064 20.6791 3.76095C20.4592 4.3155 20.4803 5.24355 20.4803 5.8674V11.6956C20.4803 11.9156 20.2964 12.0934 20.0674 12.0934H17.9278C17.7108 12.0784 17.542 11.9066 17.542 11.6956L17.539 5.8674C17.539 4.64085 17.7409 2.83583 16.219 2.83583C14.6791 2.83583 14.7394 4.59562 14.7394 5.8674V11.6956C14.7394 11.9156 14.5556 12.0934 14.3266 12.0934ZM53.9279 0.10545C57.1072 0.10545 58.828 2.83575 58.828 6.30735C58.828 9.6615 56.9264 12.3225 53.9278 12.3225C50.8058 12.3225 49.1062 9.5922 49.1062 6.18983C49.1062 2.76645 50.8269 0.10545 53.9279 0.10545ZM53.946 2.35058C52.3668 2.35058 52.2674 4.50225 52.2674 5.84325C52.2674 7.1874 52.2463 10.0562 53.9279 10.0562C55.5884 10.0562 55.6667 7.7418 55.6667 6.3315C55.6667 5.4033 55.6275 4.29427 55.3473 3.41437C55.1062 2.64885 54.627 2.35058 53.946 2.35058ZM62.9505 12.0934H60.8169C60.603 12.0784 60.4312 11.9066 60.4312 11.6956L60.4282 0.696075C60.4462 0.494175 60.6241 0.3375 60.841 0.3375H62.827C63.0138 0.3465 63.1675 0.473174 63.2097 0.644849V2.3265H63.2488C63.8486 0.822674 64.6897 0.10545 66.1687 0.10545C67.1302 0.10545 68.0677 0.451949 68.6707 1.4013C69.2309 2.2812 69.2309 3.76095 69.2309 4.82475V11.7468C69.2069 11.9397 69.0292 12.0934 68.8177 12.0934H66.6689C66.4732 12.0784 66.3104 11.9337 66.2894 11.7468V5.77395C66.2894 4.57155 66.4282 2.8116 64.9484 2.8116C64.4272 2.8116 63.948 3.16118 63.71 3.69158C63.4086 4.36365 63.3694 5.03265 63.3694 5.77403V11.6956C63.3664 11.9156 63.1795 12.0934 62.9505 12.0934ZM34.4029 6.84083C34.4029 7.6755 34.424 8.37173 34.0021 9.11295C33.6616 9.71573 33.1192 10.0863 32.5195 10.0863C31.6968 10.0863 31.2146 9.4596 31.2146 8.5344C31.2146 6.70815 32.851 6.37665 34.4029 6.37665V6.84083ZM36.5636 12.0633C36.422 12.1898 36.2171 12.1989 36.0574 12.1145C35.3462 11.5238 35.2166 11.2496 34.8279 10.6861C33.6526 11.8855 32.8178 12.2441 31.2959 12.2441C29.4908 12.2441 28.0895 11.1321 28.0895 8.90512C28.0895 7.16625 29.0297 5.98193 30.3738 5.4033C31.537 4.89098 33.1614 4.8006 34.403 4.65892V4.38173C34.403 3.8724 34.4421 3.2697 34.1407 2.82968C33.8816 2.43495 33.3813 2.2722 32.9383 2.2722C32.1217 2.2722 31.3954 2.691 31.2176 3.55898C31.1814 3.75188 31.0398 3.9417 30.8439 3.95078L28.7676 3.7278C28.5928 3.68858 28.3969 3.5469 28.4481 3.2787C28.9243 0.75945 31.2025 0 33.2398 0C34.2825 0 35.6446 0.2772 36.4673 1.0668C37.51 2.04023 37.4105 3.339 37.4105 4.75237V8.09138C37.4105 9.09495 37.8265 9.53483 38.2182 10.0773C38.3539 10.2702 38.3839 10.5022 38.2092 10.6469C37.7722 11.0115 36.9946 11.6896 36.5668 12.0693L36.5638 12.0633M6.3135 6.84083C6.3135 7.6755 6.33458 8.37173 5.91263 9.11295C5.57213 9.71573 5.03272 10.0863 4.42995 10.0863C3.60727 10.0863 3.1281 9.4596 3.1281 8.5344C3.1281 6.70815 4.76453 6.37665 6.3135 6.37665V6.84083ZM8.47417 12.0633C8.33257 12.1898 8.12767 12.1989 7.96792 12.1145C7.2567 11.5238 7.1301 11.2496 6.73837 10.6861C5.56305 11.8855 4.73138 12.2441 3.20648 12.2441C1.40438 12.2441 0 11.1321 0 8.90512C0 7.16625 0.943275 5.98193 2.28427 5.4033C3.4476 4.89098 5.07188 4.8006 6.3135 4.65892V4.38173C6.3135 3.8724 6.35265 3.2697 6.0543 2.82968C5.7921 2.43495 5.29192 2.2722 4.8519 2.2722C4.03522 2.2722 3.30593 2.691 3.1281 3.55898C3.09195 3.75188 2.95028 3.9417 2.75745 3.95078L0.678075 3.7278C0.50325 3.68858 0.3105 3.5469 0.35865 3.2787C0.837825 0.75945 3.1131 0 5.15025 0C6.1929 0 7.55505 0.2772 8.3778 1.0668C9.42037 2.04023 9.321 3.339 9.321 4.75237V8.09138C9.321 9.09495 9.73687 9.53483 10.1286 10.0773C10.2673 10.2702 10.2974 10.5022 10.1226 10.6469C9.68565 11.0115 8.9082 11.6896 8.48025 12.0693L8.47417 12.0633Z" fill="white"/>
</svg>
