<svg width="466" height="72" viewBox="0 0 466 72" fill="none" xmlns="http://www.w3.org/2000/svg">
<g clip-path="url(#clip0_10012_79)">
<path d="M145.46 21.4799C140.06 21.4799 136.36 23.9799 134.36 27.1799V8.87988H124.86V58.6799H134.26V38.7799C134.26 33.4799 137.16 29.9799 142.06 29.9799C146.96 29.9799 149.86 33.4799 149.86 38.7799V58.6799H159.26V37.1799C159.26 26.1799 150.86 21.4799 145.46 21.4799Z" fill="white"/>
<path d="M175.16 8.87988H165.76V17.1799H175.16V8.87988Z" fill="white"/>
<path d="M175.16 22.1802H165.76V58.6802H175.16V22.1802Z" fill="white"/>
<path d="M222.96 46.8802L223.01 46.8602C223 46.8002 222.97 46.7402 222.96 46.6802V46.8802Z" fill="white"/>
<path d="M366.06 22.1802H356.66V58.6802H366.06V22.1802Z" fill="white"/>
<path d="M366.06 8.87988H356.66V17.1799H366.06V8.87988Z" fill="white"/>
<path d="M390.56 21.48C381.06 21.48 371.36 28.08 371.36 40.38C371.26 52.78 381.06 59.28 390.56 59.28C400.06 59.28 409.76 52.68 409.76 40.38C409.76 28.08 400.06 21.48 390.56 21.48ZM390.56 50.78C385.26 50.78 380.56 46.78 380.56 40.38C380.56 33.98 385.36 29.98 390.56 29.98C395.76 29.98 400.46 33.88 400.46 40.38C400.46 46.88 395.86 50.78 390.56 50.78Z" fill="white"/>
<path d="M435.26 21.48C429.86 21.48 426.16 23.98 424.16 27.18V22.18H414.66V58.68H424.06V38.78C424.06 33.48 426.96 29.98 431.86 29.98C436.76 29.98 439.66 33.48 439.66 38.78V58.68H449.06V37.18C449.06 26.18 440.66 21.48 435.26 21.48Z" fill="white"/>
<path d="M343.01 47.0199V29.6999H350.51V22.1999H343.01V12.8799H333.55V22.1999H328.36V29.6999H333.55V48.5599C333.55 55.9899 338.04 59.0799 344.21 59.0799C346.52 59.0799 349.26 58.6599 350.59 57.3999V50.1099C349.26 50.5999 348 50.7399 347.15 50.7399C344.14 50.7399 343.01 48.9199 343.01 47.0199Z" fill="white"/>
<path d="M273.21 47.0199V29.6999H280.71V22.1999H273.21V12.8799H263.75V22.1999H258.56V29.6999H263.75V48.5599C263.75 55.9899 268.24 59.0799 274.41 59.0799C276.72 59.0799 279.46 58.6599 280.79 57.3999V50.1099C279.46 50.5999 278.2 50.7399 277.35 50.7399C274.34 50.7399 273.21 48.9199 273.21 47.0199Z" fill="white"/>
<path d="M106.86 29.7398L103.49 28.4098C98.0899 26.3098 96.5499 24.2698 96.5499 21.6798C96.5499 18.4598 99.2799 16.6298 102.79 16.6298C106.3 16.6298 109.17 18.5198 111.27 22.5898L118.42 18.5898C116.18 13.3298 110.99 8.06982 102.43 8.06982C93.8699 8.06982 87.0799 13.2598 87.0799 21.5998C87.0799 29.1698 92.6199 32.9598 99.4899 35.6898L102.65 36.8798C107.7 38.9098 109.87 40.5298 109.87 44.1698C109.87 48.4498 106.5 50.5498 102.58 50.5498C97.5299 50.5498 94.3799 47.1098 92.9699 43.2598L85.1899 46.8398C86.9399 54.0598 94.0199 59.2498 102.72 59.2498C111.42 59.2498 119.9 54.3398 119.9 44.2498C119.9 37.2398 115.62 33.2398 106.86 29.7398Z" fill="white"/>
<path d="M244.68 29.71L241.31 28.38C235.91 26.28 234.37 24.24 234.37 21.65C234.37 18.43 237.1 16.6 240.61 16.6C244.12 16.6 246.99 18.49 249.09 22.56L256.24 18.56C254 13.3 248.81 8.04004 240.25 8.04004C231.69 8.04004 224.9 13.23 224.9 21.57C224.9 29.14 230.44 32.93 237.31 35.66L240.47 36.85C245.52 38.88 247.69 40.5 247.69 44.14C247.69 48.42 244.32 50.52 240.4 50.52C235.35 50.52 232.2 47.08 230.79 43.23L223.01 46.81C224.76 54.03 231.84 59.22 240.54 59.22C249.24 59.22 257.72 54.31 257.72 44.22C257.72 37.21 253.44 33.21 244.68 29.71Z" fill="white"/>
<path d="M58.6101 19.6701C58.6101 17.2401 59.6001 15.0301 61.1901 13.4401L53.8701 6.11012C52.2701 7.70012 50.0701 8.69012 47.6401 8.69012C42.7701 8.69012 38.8201 4.74012 38.8201 -0.129883H33.6401H28.4601C28.4601 4.74012 24.5101 8.69012 19.6401 8.69012C17.2101 8.69012 15.0001 7.70012 13.4101 6.11012L6.0901 13.4401C7.6801 15.0401 8.6701 17.2401 8.6701 19.6701C8.6701 24.5401 4.7201 28.4901 -0.149902 28.4901V38.8501C4.7201 38.8501 8.6701 42.8001 8.6701 47.6701C8.6701 50.1001 7.6801 52.3101 6.0901 53.9001L13.4101 61.2301C15.0101 59.6401 17.2101 58.6501 19.6401 58.6501C24.5101 58.6501 28.4601 62.6001 28.4601 67.4701H33.6401H38.8201C38.8201 62.6001 42.7701 58.6501 47.6401 58.6501C50.0701 58.6501 52.2801 59.6401 53.8701 61.2301L61.1901 53.9001C59.6001 52.3001 58.6101 50.1001 58.6101 47.6701C58.6101 42.8001 62.5601 38.8501 67.4301 38.8501V28.4901C62.5601 28.4901 58.6101 24.5401 58.6101 19.6701ZM50.6101 43.4601L33.6401 53.2601L16.6701 43.4601V23.8601L33.6401 14.0601L50.6101 23.8601V43.4601Z" fill="white"/>
<path d="M460.76 21.48C457.96 21.48 455.46 23.58 455.46 26.88C455.46 30.18 457.96 32.28 460.76 32.28C463.56 32.28 466.06 30.18 466.06 26.88C466.06 23.58 463.56 21.48 460.76 21.48ZM460.76 31.08C458.56 31.08 456.66 29.58 456.66 26.88C456.66 24.18 458.56 22.58 460.76 22.58C462.96 22.58 464.86 24.18 464.86 26.88C464.86 29.58 462.96 31.08 460.76 31.08Z" fill="white"/>
<path d="M462.76 25.78C462.76 24.78 462.06 23.98 460.86 23.98H458.86V29.48H459.76V27.48H460.66L462.06 29.48H463.06L461.56 27.48C462.26 27.28 462.76 26.78 462.76 25.78ZM459.76 26.78V24.78H460.86C461.56 24.78 461.96 25.18 461.96 25.88C461.96 26.58 461.56 26.78 460.86 26.78H459.76Z" fill="white"/>
<path d="M313.6 27.11H313.39C312.48 25.15 308.27 21.5 301.75 21.5C293.26 21.5 284.22 27.81 284.22 40.43C284.15 53.12 293.27 59.37 301.75 59.37C308.27 59.37 312.48 55.79 313.39 53.76H313.6V58.67H323V22.2H313.6V27.11ZM303.64 50.95C298.38 50.95 293.47 47.23 293.47 40.43C293.47 33.63 298.38 29.91 303.64 29.91C308.9 29.91 313.81 33.56 313.81 40.43C313.81 47.3 308.9 50.95 303.64 50.95Z" fill="white"/>
<path d="M202.86 21.4399C196.34 21.4399 192.13 24.9499 191.22 27.0499H191.01V22.1399H181.61V71.9299H191.01V53.6999H191.22C192.13 55.7299 196.34 59.3099 202.86 59.3099C211.35 59.3099 220.39 52.9999 220.39 40.3699C220.39 27.7399 211.34 21.4399 202.86 21.4399ZM200.97 50.8899C195.64 50.8899 190.8 47.2399 190.8 40.3699C190.8 33.4999 195.64 29.8499 200.97 29.8499C206.3 29.8499 211.07 33.5699 211.07 40.3699C211.07 47.1699 206.16 50.8899 200.97 50.8899Z" fill="white"/>
</g>
<defs>
<clipPath id="clip0_10012_79">
<rect width="465.9" height="71.8" fill="white"/>
</clipPath>
</defs>
</svg>
