<svg width="961" height="194" viewBox="0 0 961 194" fill="none" xmlns="http://www.w3.org/2000/svg">
<g clip-path="url(#clip0_10012_28)">
<path d="M31.46 127.56C31.46 138.68 33.9 147.22 37.09 152.38C40.54 158.38 46.95 162.06 53.87 162.01C62.07 162.01 69.58 159.97 84.04 139.97C95.62 123.94 109.27 101.44 118.46 87.34L134.01 63.44C144.81 46.84 157.32 28.39 171.66 15.88C183.37 5.67 195.99 0 208.7 0C230.04 0 250.36 12.36 265.92 35.55C282.94 60.95 291.21 92.94 291.21 125.95C291.21 145.58 287.34 160 280.76 171.39C274.4 182.41 262.01 193.41 241.16 193.41V162C259.01 162 263.47 145.59 263.47 126.82C263.47 100.07 257.23 70.37 243.49 49.16C233.74 34.11 221.1 24.92 207.2 24.92C192.16 24.92 180.06 36.26 166.46 56.48C159.23 67.22 151.81 80.32 143.48 95.09L134.31 111.34C115.88 144.02 111.21 151.46 102 163.74C85.85 185.25 72.06 193.4 53.89 193.4C32.35 193.4 18.73 184.07 10.3 170.02C3.42004 158.57 0.0400391 143.54 0.0400391 126.42L31.46 127.56Z" fill="white"/>
<path d="M24.8101 37.7802C39.2301 15.5502 60.04 0.0102539 83.91 0.0102539C97.74 0.0102539 111.47 4.10025 125.82 15.8203C141.52 28.6303 158.24 49.7202 179.12 84.4902L186.6 96.9702C204.67 127.07 214.94 142.55 220.96 149.85C228.7 159.23 234.11 162.02 241.15 162.02C259 162.02 263.46 145.61 263.46 126.84L291.21 125.97C291.21 145.6 287.34 160.02 280.76 171.41C274.4 182.43 262.01 193.43 241.16 193.43C228.19 193.43 216.71 190.62 204.02 178.64C194.26 169.45 182.85 153.11 174.07 138.43L147.96 94.8002C134.86 72.9102 122.84 56.5802 115.88 49.1902C108.4 41.2402 98.7801 31.6403 83.4201 31.6403C70.9901 31.6403 60.4401 40.3603 51.6101 53.7003L24.8101 37.7802Z" fill="white"/>
<path d="M83.4 31.64C70.97 31.64 60.42 40.36 51.59 53.7C39.1 72.54 31.46 100.61 31.46 127.57C31.46 138.69 33.9 147.23 37.09 152.39L10.27 170.05C3.38 158.6 0 143.57 0 126.45C0 95.31 8.55 62.86 24.8 37.79C39.22 15.57 60.03 0.0200195 83.9 0.0200195L83.4 31.64Z" fill="white"/>
<path d="M352.35 6.13037H388.74L450.6 118.05L512.47 6.13037H548.07V190.03H518.39V49.0804L464.13 146.68H436.28L382.03 49.0804V190.02H352.35V6.13037ZM641.07 74.6904C619.78 74.6904 606.96 90.7104 603.9 110.55H676.14C674.65 90.1204 662.86 74.6904 641.07 74.6904ZM574.47 121.85C574.47 80.1104 601.45 49.7304 641.59 49.7304C681.07 49.7304 704.65 79.7304 704.65 124.08V132.23H603.9C607.47 153.81 621.79 168.36 644.88 168.36C663.3 168.36 674.81 162.74 685.73 152.46L701.5 171.77C686.64 185.43 667.75 193.31 643.83 193.31C600.37 193.31 574.47 161.63 574.47 121.85ZM740.63 77.3304H713.31V53.0304H740.63V12.8404H769.27V53.0304H810.78V77.3304H769.27V138.94C769.27 159.97 775.99 167.45 792.52 167.45C798.65 167.46 804.76 166.89 810.78 165.74V189.78C803.05 191.99 795.04 193.09 787 193.05C756.08 193.05 740.63 176.15 740.63 142.35V77.3304ZM931.37 100.96C925.62 86.4404 912.79 75.7404 893.93 75.7404C869.42 75.7404 853.74 93.1304 853.74 121.45C853.74 149.06 868.18 167.29 892.76 167.29C912.08 167.29 925.87 156.05 931.37 142.07V100.96ZM960.01 190.02H931.89V170.85C924.03 182.14 909.73 193.31 886.57 193.31C849.32 193.31 824.43 162.13 824.43 121.46C824.43 80.4104 849.92 49.7404 888.15 49.7404C907.05 49.7404 921.87 57.2904 931.89 70.6304V53.0304H960L960.01 190.02Z" fill="white"/>
</g>
<defs>
<clipPath id="clip0_10012_28">
<rect width="961" height="194" fill="white"/>
</clipPath>
</defs>
</svg>
