<svg width="114" height="30" viewBox="0 0 114 30" fill="none" xmlns="http://www.w3.org/2000/svg">
<g clip-path="url(#clip0_10012_76)">
<path d="M13 28C20.1797 28 26 22.1797 26 15C26 7.8203 20.1797 2 13 2C5.8203 2 0 7.8203 0 15C0 22.1797 5.8203 28 13 28Z" fill="white"/>
<path d="M3.60986 14.9995C3.60986 17.7915 5.8733 20.055 8.66542 20.055H9.38764V18.1772H8.66542C6.91319 18.1772 5.48764 16.7516 5.48764 14.9995C5.48764 13.2472 6.91319 11.8217 8.66542 11.8217H10.4009C10.4009 11.8217 10.4009 21.458 10.4009 21.6438C10.4009 22.6809 11.2417 23.5216 12.2787 23.5216V9.94395C12.2787 9.94395 10.3355 9.94395 8.66542 9.94395C5.8733 9.94395 3.60986 12.2074 3.60986 14.9995ZM17.3347 9.9447H16.6125V11.8225H17.3347C19.0869 11.8225 20.5125 13.248 20.5125 15.0002C20.5125 16.7524 19.0869 18.1779 17.3347 18.1779H15.5992C15.5992 18.1779 15.5992 8.54163 15.5992 8.35581C15.5992 7.3187 14.7584 6.47803 13.7214 6.47803V20.0557C13.7214 20.0557 15.6646 20.0557 17.3347 20.0557C20.1268 20.0557 22.3902 17.7922 22.3902 15.0002C22.3902 12.2081 20.1268 9.9447 17.3347 9.9447Z" fill="#06080D"/>
</g>
<g clip-path="url(#clip1_10012_76)">
<path d="M37.7404 29.5317H35.7119V24.3936H35.6769C35.1524 25.2038 34.1206 25.7109 32.9899 25.7109C30.5213 25.7109 29 23.7495 29 21.383C29 18.9815 30.6233 17.1221 32.9374 17.1221C34.4237 17.1221 35.3389 17.8478 35.744 18.4919H35.7935V17.3582H37.7374V29.5317H37.7404ZM33.3979 24.0205C34.8842 24.0205 35.7818 22.6858 35.7818 21.418C35.7818 20.1502 34.8871 18.7804 33.3979 18.7804C31.827 18.7804 31.0663 20.1152 31.0663 21.383C31.0634 22.6508 31.8241 24.0205 33.3979 24.0205Z" fill="white"/>
<path d="M46.8518 25.4745H44.9254V24.1718H44.8904C44.5348 24.982 43.5731 25.7106 42.3723 25.7106C40.2594 25.7106 39.3792 24.0873 39.3792 22.4319V17.3608H41.4076V21.8577C41.4076 22.8224 41.6262 24.0202 42.929 24.0202C44.2142 24.0202 44.8233 22.904 44.8233 21.8228V17.3608H46.8518V25.4745Z" fill="white"/>
<path d="M48.8845 17.1836H50.913V25.2974H48.8845V17.1836Z" fill="white"/>
<path d="M58.5034 19.6081C58.1828 19.1506 57.4891 18.8125 56.8303 18.8125C55.344 18.8125 54.5979 20.1473 54.5979 21.4151C54.5979 22.6828 55.3587 24.0177 56.8974 24.0177C57.5239 24.0177 58.2146 23.7641 58.6053 23.292L59.873 24.5773C59.1965 25.303 58.0803 25.711 56.8798 25.711C54.4783 25.711 52.4846 24.1226 52.4846 21.418C52.4846 18.7805 54.4464 17.125 56.8303 17.125C58.0136 17.125 59.2465 17.5972 59.8902 18.3928L58.5034 19.6081Z" fill="white"/>
<path d="M60.8865 12.6948H62.915V20.7736H62.9645L66.042 17.3579H68.6445L65.1297 21.0272L68.8661 25.4717H66.1793L62.9674 21.3128H62.9179V25.4717H60.8895V12.6948H60.8865Z" fill="white"/>
<path d="M71.8227 12.6948V18.3925H71.8723C72.2948 17.8679 73.1051 17.1247 74.5944 17.1247C76.9111 17.1247 78.5317 18.9841 78.5317 21.3857C78.5317 23.7522 77.0101 25.7136 74.5419 25.7136C73.4081 25.7136 72.309 25.189 71.7526 24.2593H71.7178V25.4775H69.7913V12.6948H71.8227ZM74.1395 18.7802C72.6531 18.7802 71.7556 20.15 71.7556 21.4177C71.7556 22.6855 72.6502 24.0203 74.1395 24.0203C75.7106 24.0203 76.4709 22.6505 76.4709 21.3827C76.4709 20.115 75.7106 18.7802 74.1395 18.7802Z" fill="white"/>
<path d="M83.8217 17.125C86.2728 17.125 88.2346 18.8329 88.2346 21.386C88.2346 23.939 86.2728 25.7139 83.8217 25.7139C81.3707 25.7139 79.4094 23.939 79.4094 21.386C79.4094 18.8329 81.3707 17.125 83.8217 17.125ZM83.8217 24.0206C85.4277 24.0206 86.1708 22.6508 86.1708 21.383C86.1708 20.1152 85.4277 18.7805 83.8217 18.7805C82.2158 18.7805 81.4727 20.1152 81.4727 21.383C81.4727 22.6508 82.2158 24.0206 83.8217 24.0206Z" fill="white"/>
<path d="M93.5276 17.125C95.9786 17.125 97.9399 18.8329 97.9399 21.386C97.9399 23.939 95.9786 25.7139 93.5276 25.7139C91.0765 25.7139 89.1152 23.939 89.1152 21.386C89.1152 18.8329 91.0765 17.125 93.5276 17.125ZM93.5276 24.0206C95.1335 24.0206 95.8766 22.6508 95.8766 21.383C95.8766 20.1152 95.1335 18.7805 93.5276 18.7805C91.9216 18.7805 91.1785 20.1152 91.1785 21.383C91.1756 22.6508 91.9216 24.0206 93.5276 24.0206Z" fill="white"/>
<path d="M99.1746 12.6948H101.203V20.7736H101.253L104.331 17.3579H106.933L103.418 21.0272L107.155 25.4717H104.467L101.256 21.3128H101.206V25.4717H99.1776V12.6948H99.1746Z" fill="white"/>
<path d="M112.686 19.5236C112.33 19.0515 111.654 18.6434 110.911 18.6434C110.27 18.6434 109.608 18.8795 109.608 19.5236C109.608 20.1502 110.235 20.3192 111.365 20.5874C112.566 20.8759 113.985 21.4151 113.985 23.0034C113.985 24.9823 112.379 25.708 110.605 25.708C109.354 25.708 108.052 25.2359 107.273 24.3732L108.608 23.1229C109.048 23.6971 109.809 24.1372 110.686 24.1372C111.278 24.1372 111.989 23.9011 111.989 23.1725C111.989 22.4963 111.362 22.2923 110.13 22.0067C108.929 21.7181 107.728 21.2285 107.728 19.7072C107.728 17.8974 109.351 17.1221 110.957 17.1221C112.123 17.1221 113.341 17.5272 114 18.3549L112.686 19.5236Z" fill="white"/>
<path d="M51.2242 6.28335C51.2242 8.34095 52.8708 9.84481 54.9635 9.84481C57.0561 9.84481 58.7057 8.34389 58.7057 6.28335V1.55908H56.6772V6.04149C56.6772 7.15185 55.9341 7.89506 54.9576 7.89506C53.9781 7.89506 53.2379 7.15185 53.2379 6.04149V1.55908H51.2124L51.2242 6.28335Z" fill="white"/>
<path d="M64.1228 3.45637H66.542V9.68162H68.5675V3.45637H70.9832V1.55908H64.1228V3.45637Z" fill="white"/>
<path d="M62.8122 1.55908H60.7866V9.68162H62.8122V1.55908Z" fill="white"/>
<path d="M43.0417 3.45637H45.4606V9.68162H47.4862V3.45637H49.9023V1.55908H43.0417V3.45637Z" fill="white"/>
<path d="M32.4132 1.55908H30.3877V9.68162H32.4132V5.62177V1.55908Z" fill="white"/>
<path d="M41.9737 4.95694C41.9737 2.89936 40.3242 1.39551 38.2316 1.39551C36.1391 1.39551 34.4895 2.89644 34.4895 4.95694V9.68125H36.515V5.19885C36.515 4.08844 37.2582 3.34526 38.2345 3.34526C39.2109 3.34526 39.954 4.08844 39.954 5.19885V9.68125H41.9796L41.9737 4.95694Z" fill="white"/>
</g>
<defs>
<clipPath id="clip0_10012_76">
<rect width="26" height="26" fill="white" transform="translate(0 2)"/>
</clipPath>
<clipPath id="clip1_10012_76">
<rect width="85" height="30" fill="white" transform="translate(29)"/>
</clipPath>
</defs>
</svg>
