<svg width="426" height="150" viewBox="0 0 426 150" fill="none" xmlns="http://www.w3.org/2000/svg">
<g clip-path="url(#clip0_10012_110)">
<path d="M276.816 2.29004H230.896L203.82 40.5981L176.744 2.29004H130.614L180.755 73.2168L128.742 146.849H174.66L203.814 105.632L232.767 146.849H278.907L226.677 73.2144L276.816 2.29004Z" fill="white"/>
<path d="M403.241 21.4224C389.177 7.60791 369.95 0 349.104 0C328.245 0 308.983 7.60693 294.866 21.4194C280.748 35.2329 272.973 54.0718 272.973 74.4648C272.973 117.036 305.702 149.139 349.104 149.139C392.387 149.139 425.027 117.036 425.027 74.4648C425.027 54.0601 417.29 35.2226 403.241 21.4224ZM385.211 74.4648C385.211 95.8809 369.688 112.03 349.104 112.03C328.519 112.03 312.997 95.8809 312.997 74.4648C312.997 53.1685 328.52 37.1089 349.104 37.1089C369.688 37.1089 385.211 53.1685 385.211 74.4648Z" fill="white"/>
<path d="M122.277 52.6001C122.277 23.9185 99.1265 2.29004 68.4268 2.29004H0V38.1494H68.4268C76.4277 38.1494 82.4614 44.3618 82.4614 52.6001C82.4614 61.0942 76.5591 67.2593 68.4268 67.2593H0V146.849H38.5674V102.912H60.1938L85.5986 146.849H128.742L98.644 94.7656C113.483 85.7432 122.277 70.1279 122.277 52.6001Z" fill="white"/>
</g>
<defs>
<clipPath id="clip0_10012_110">
<rect width="425.027" height="149.139" fill="white"/>
</clipPath>
</defs>
</svg>
