<svg width="100" height="29" viewBox="0 0 100 29" fill="none" xmlns="http://www.w3.org/2000/svg">
<g clip-path="url(#clip0_10012_33)">
<path d="M11.3 0.999784C11.5 0.999784 11.6 1.09978 11.8 1.19978C10.6 1.69978 9.4 2.99978 8.8 5.79978L6.6 6.39978C7.3 4.39978 8.7 0.999784 11.3 0.999784ZM12.4 1.99978C12.6 2.59978 12.8 3.29978 12.8 4.39978C12.8 4.49978 12.8 4.49978 12.8 4.59978L9.9 5.39978C10.5 3.29978 11.5 2.39978 12.4 1.99978ZM15 3.79978L13.7 4.19978C13.7 4.09978 13.7 3.99978 13.7 3.89978C13.7 2.99978 13.6 2.29978 13.4 1.69978C14.1 1.89978 14.7 2.79978 15 3.79978ZM21.5 5.39978C21.5 5.29978 21.4 5.19978 21.3 5.19978C21.1 5.19978 19 4.99978 19 4.99978C19 4.99978 17.5 3.49978 17.3 3.39978C17.1 3.19978 16.8 3.29978 16.7 3.29978C16.7 3.29978 16.4 3.39978 15.9 3.59978C15.4 2.19978 14.5 0.899784 13 0.899784H12.9C12.5 0.299784 11.9 0.0997838 11.4 0.0997838C7.8 -0.000216196 6.1 4.49978 5.5 6.79978C4.7 6.99978 3.9 7.29978 3 7.59978C2.2 7.79978 2.2 7.89978 2.1 8.59978C2 9.09978 0 24.8998 0 24.8998L15.9 27.8998L24.5 25.9998C24.5 25.9998 21.5 5.59978 21.5 5.39978Z" fill="white"/>
<path d="M21.1999 5.1998C21.0999 5.1998 18.9999 4.9998 18.9999 4.9998C18.9999 4.9998 17.4999 3.4998 17.2999 3.3998C17.1999 3.2998 17.1999 3.2998 17.0999 3.2998L15.8999 27.8998L24.4999 25.9998C24.4999 25.9998 21.4999 5.5998 21.4999 5.3998C21.4999 5.2998 21.2999 5.1998 21.1999 5.1998Z" fill="white"/>
<path d="M13 9.99965L11.9 13.1996C11.9 13.1996 11 12.6996 9.79995 12.6996C8.09995 12.6996 7.99995 13.6996 7.99995 13.9996C7.99995 15.3996 11.8 15.9996 11.8 19.3996C11.8 22.0996 10.1 23.7996 7.79995 23.7996C5.09995 23.7996 3.69995 22.0996 3.69995 22.0996L4.39995 19.6996C4.39995 19.6996 5.79995 20.8996 6.99995 20.8996C7.79995 20.8996 8.09995 20.2996 8.09995 19.7996C8.09995 17.8996 4.99995 17.7996 4.99995 14.6996C4.99995 12.0996 6.89995 9.59965 10.6 9.59965C12.3 9.49965 13 9.99965 13 9.99965Z" fill="#06080D"/>
<path d="M34.6 15.9C33.7 15.4 33.3 15 33.3 14.5C33.3 13.8 33.9 13.4 34.9 13.4C36 13.4 37 13.9 37 13.9L37.8 11.5C37.8 11.5 37.1 10.9 35 10.9C32 10.9 30 12.6 30 15C30 16.4 31 17.4 32.2 18.1C33.2 18.7 33.6 19.1 33.6 19.7C33.6 20.3 33.1 20.9 32.1 20.9C30.7 20.9 29.3 20.2 29.3 20.2L28.5 22.6C28.5 22.6 29.7 23.4 31.8 23.4C34.8 23.4 37 21.9 37 19.2C37 17.7 35.9 16.6 34.6 15.9ZM46.7 10.8C45.2 10.8 44 11.5 43.1 12.6L44.4 5.8H41L37.7 23.1H41.1L42.2 17.2C42.6 15 43.8 13.6 44.9 13.6C45.7 13.6 46 14.1 46 14.9C46 15.4 46 15.9 45.9 16.4L44.6 23.2H48L49.3 16.2C49.4 15.5 49.5 14.6 49.5 14C49.5 12 48.5 10.8 46.7 10.8ZM55.4 20.7C54.2 20.7 53.8 19.7 53.8 18.5C53.8 16.6 54.8 13.4 56.6 13.4C57.8 13.4 58.2 14.4 58.2 15.4C58.2 17.6 57.2 20.7 55.4 20.7ZM57.1 10.8C53 10.8 50.3 14.5 50.3 18.6C50.3 21.2 51.9 23.3 55 23.3C59 23.3 61.7 19.7 61.7 15.5C61.7 13.1 60.3 10.8 57.1 10.8ZM67.1 20.8C66.2 20.8 65.7 20.3 65.7 20.3L66.3 17.1C66.7 15 67.8 13.6 69 13.6C70 13.6 70.4 14.6 70.4 15.5C70.3 17.7 69 20.8 67.1 20.8ZM70.4 10.8C68.1 10.8 66.8 12.8 66.8 12.8L67 11H64C63.9 12.2 63.6 14.1 63.3 15.5L60.9 27.9H64.3L65.2 22.9H65.3C65.3 22.9 66 23.3 67.3 23.3C71.3 23.3 73.9 19.2 73.9 15.1C73.9 12.9 72.9 10.8 70.4 10.8ZM78.7 6C77.6 6 76.8 6.9 76.8 8C76.8 9 77.4 9.7 78.4 9.7C79.5 9.7 80.4 9 80.4 7.7C80.4 6.7 79.7 6 78.7 6ZM74 23.1H77.4L79.7 11.1H76.3L74 23.1ZM88.3 11.1H85.9L86 10.5C86.2 9.3 86.9 8.3 88 8.3C88.6 8.3 89.1 8.5 89.1 8.5L89.8 5.8C89.8 5.8 89.2 5.5 88 5.5C86.8 5.5 85.6 5.8 84.7 6.6C83.5 7.6 83 9 82.7 10.4L82.6 11H81L80.5 13.6H82.1L80.3 23.1H83.7L85.5 13.6H87.8L88.3 11.1ZM96.4 11.1C96.4 11.1 94.3 16.4 93.3 19.3C93.2 18.4 92.5 11.1 92.5 11.1H88.9L90.9 22.1C90.9 22.3 90.9 22.5 90.8 22.7C90.4 23.5 89.7 24.2 89 24.7C88.4 25.2 87.6 25.5 87.1 25.7L88 28.6C88.7 28.5 90.1 27.9 91.3 26.8C92.8 25.4 94.3 23.1 95.7 20.1L99.8 11.2L96.4 11.1Z" fill="white"/>
</g>
<defs>
<clipPath id="clip0_10012_33">
<rect width="100" height="28.6" fill="white"/>
</clipPath>
</defs>
</svg>
