<svg width="2498" height="1037" viewBox="0 0 2498 1037" fill="none" xmlns="http://www.w3.org/2000/svg">
<mask id="mask0_10012_72" style="mask-type:luminance" maskUnits="userSpaceOnUse" x="0" y="0" width="2498" height="1037">
<path d="M0 0H2497.91V1036.13H0V0Z" fill="white"/>
</mask>
<g mask="url(#mask0_10012_72)">
<path fill-rule="evenodd" clip-rule="evenodd" d="M260.73 466.079C206.897 446.167 177.395 430.68 177.395 406.344C177.395 385.691 194.358 373.894 224.596 373.894C279.906 373.894 336.687 395.282 375.774 414.452L397.898 278.025C366.925 263.274 303.501 238.938 215.747 238.938C153.8 238.938 102.174 255.16 65.3042 285.398C26.9524 317.107 7.04088 362.832 7.04088 418.142C7.04088 518.435 68.2522 561.211 167.81 597.345C231.969 620.205 253.357 636.433 253.357 661.504C253.357 685.841 232.705 699.851 195.094 699.851C148.634 699.851 71.9413 676.991 21.792 647.494L-0.331909 785.398C42.4391 809.735 122.085 834.806 204.685 834.806C270.315 834.806 324.889 819.32 361.764 789.823C403.059 757.373 424.447 709.441 424.447 647.494C424.447 544.983 361.764 502.212 260.73 466.079ZM784.607 385.691L806.731 250H689.934V85.2765L532.898 111.117L510.221 250L454.989 258.96L434.314 385.691H509.994V651.919C509.994 721.239 527.694 769.176 563.827 798.673C594.065 823.009 637.572 834.806 698.783 834.806C745.979 834.806 774.74 826.698 794.652 821.532V677.727C783.59 680.68 758.518 685.841 741.554 685.841C705.42 685.841 689.934 667.406 689.934 625.371V385.691H784.607ZM1135.36 242.074C1083.74 242.074 1042.44 269.176 1026.22 317.848L1015.15 250H855.127V823.744H1038.01V451.327C1060.88 423.302 1093.32 413.169 1137.57 413.169C1147.16 413.169 1157.48 413.169 1170.02 415.382V246.499C1157.48 243.551 1146.42 242.074 1135.36 242.074ZM1306.45 193.213C1359.55 193.213 1402.32 149.707 1402.32 96.6095C1402.32 42.771 1359.55 0 1306.45 0C1252.62 0 1209.85 42.771 1209.85 96.6095C1209.85 149.707 1252.62 193.213 1306.45 193.213ZM1214.27 250H1397.9V823.744H1214.27V250ZM1918.27 301.621C1885.82 259.585 1840.84 238.938 1783.31 238.938C1730.22 238.938 1683.76 261.062 1640.24 307.522L1630.66 250H1469.89V1036.13L1652.78 1005.9V821.532C1680.8 830.382 1709.56 834.806 1735.38 834.806C1781.1 834.806 1847.47 823.009 1899.09 766.963C1948.5 713.125 1973.58 629.795 1973.58 519.912C1973.58 422.566 1955.14 348.822 1918.27 301.621ZM1766.35 655.603C1751.6 683.628 1728.74 698.379 1702.19 698.379C1683.76 698.379 1667.53 694.69 1652.78 687.317V414.452C1683.76 382.008 1711.78 378.319 1722.1 378.319C1768.56 378.319 1791.42 428.468 1791.42 526.549C1791.42 582.594 1783.31 626.106 1766.35 655.603ZM2497.91 531.709C2497.91 440.265 2478 367.992 2438.92 317.107C2399.09 265.487 2339.36 238.938 2263.4 238.938C2107.79 238.938 2011.19 353.982 2011.19 538.346C2011.19 641.593 2037 719.027 2087.88 768.435C2133.61 812.683 2199.24 834.806 2284.05 834.806C2362.22 834.806 2434.49 816.372 2480.22 786.134L2460.3 660.769C2415.32 685.105 2362.96 698.379 2303.96 698.379C2268.56 698.379 2244.23 691.001 2226.53 675.514C2207.35 659.292 2196.29 632.743 2192.61 595.133H2495.7C2496.44 586.283 2497.91 544.983 2497.91 531.709ZM2191.13 483.037C2196.29 401.178 2218.41 362.832 2260.45 362.832C2301.75 362.832 2323.14 401.919 2326.08 483.037H2191.13Z" fill="white"/>
</g>
</svg>
