<svg width="913" height="208" viewBox="0 0 913 208" fill="none" xmlns="http://www.w3.org/2000/svg">
<path d="M143.724 32.4454C135.845 23.4735 131.502 11.9403 131.505 0H121.979C123.209 6.60167 125.772 12.8834 129.511 18.4618C133.249 24.0401 138.085 28.7982 143.724 32.4454ZM55.5692 102.652C41.8209 102.722 29.885 112.141 26.6199 125.496C23.3545 138.851 29.5978 152.715 41.7625 159.121C35.1712 150.021 34.24 137.993 39.3521 127.987C44.4648 117.98 54.7566 111.687 65.9931 111.695C68.9893 111.733 71.9648 112.198 74.8295 113.076V76.7643C71.904 76.3261 68.9512 76.0955 65.9931 76.0742H64.4053V103.687C61.5257 102.915 58.5493 102.566 55.5692 102.652Z" fill="white"/>
<path d="M170.716 48.5303V76.1433C152.938 76.1088 135.622 70.4816 121.219 60.0586V132.612C121.143 168.816 91.7729 198.124 55.5692 198.124C42.124 198.148 29.0026 194 18.0151 186.251C36.3518 205.972 64.889 212.464 89.9524 202.616C115.016 192.767 131.5 168.584 131.505 141.655V69.309C145.955 79.6638 163.293 85.2177 181.071 85.1866V49.6347C177.59 49.6237 174.121 49.2536 170.716 48.5303Z" fill="white"/>
<path d="M121.219 132.612V60.0587C135.665 70.4219 153.006 75.9767 170.785 75.9364V48.3231C160.281 46.1051 150.784 40.5325 143.724 32.4454C138.085 28.7981 133.249 24.0401 129.511 18.4618C125.772 12.8834 123.209 6.60167 121.979 0H95.8844V142.898C95.3623 155.647 86.8231 166.666 74.6084 170.354C62.3934 174.042 49.1829 169.589 41.6933 159.259C29.5289 152.853 23.2856 138.989 26.5507 125.634C29.8161 112.279 41.7517 102.861 55.5 102.79C58.4968 102.817 61.4738 103.282 64.3363 104.171V76.5576C38.3906 76.997 15.1553 92.7249 5.10722 116.65C-4.94112 140.574 0.0956158 168.176 17.9462 187.01C29.042 194.504 42.1824 198.386 55.5691 198.125C91.7729 198.125 121.143 168.816 121.219 132.612Z" fill="white"/>
<path d="M294.215 198.21H256.483V75.5641H218.824L218.751 41.9446H335.049L324.371 75.5641H294.215V198.21ZM601.047 198.21H563.387V75.5641H525.583L525.511 41.9446H644.478L633.801 75.5641H601.047V198.21ZM342.119 91.6524H379.418V198.21H342.408L342.119 91.6524ZM442.473 146.338L431.434 157.016V198.21H394.208V41.5117H431.434V114.306L468.373 78.2334H512.814L466.136 123.54L518.441 198.21H477.391L442.473 146.338ZM837.105 146.338L826.427 157.016V198.21H789.128L788.768 41.5117H826.427V114.306L863.293 78.2334H907.734L861.057 123.54L913.001 198.21H871.951L837.105 146.338Z" fill="white"/>
<path d="M360.805 79.4601C371.164 79.4601 379.562 71.062 379.562 60.7025C379.562 50.3429 371.164 41.9448 360.805 41.9448C350.445 41.9448 342.047 50.3429 342.047 60.7025C342.047 71.062 350.445 79.4601 360.805 79.4601Z" fill="white"/>
<path d="M639.716 134.434C639.728 101.151 665.333 73.4724 698.514 70.8745H692.959C659.237 72.8415 632.897 100.762 632.897 134.542C632.897 168.322 659.237 196.243 692.959 198.21H698.514C665.249 195.606 639.615 167.801 639.716 134.434Z" fill="white"/>
<path d="M713.016 70.6585H707.388C740.463 73.3903 765.915 101.031 765.915 134.218C765.915 167.405 740.463 195.046 707.388 197.778H713.016C748.238 197.778 776.792 169.224 776.792 134.002C776.792 98.7791 748.238 70.2256 713.016 70.2256V70.6585Z" fill="white"/>
<path d="M702.915 165.456C685.782 165.456 671.893 151.567 671.893 134.434C671.893 117.301 685.782 103.412 702.915 103.412C720.049 103.412 733.938 117.301 733.938 134.434C733.898 151.551 720.032 165.417 702.915 165.456ZM702.915 70.6582C667.693 70.6582 639.139 99.2117 639.139 134.434C639.139 169.657 667.693 198.21 702.915 198.21C738.138 198.21 766.691 169.657 766.691 134.434C766.691 117.52 759.972 101.298 748.012 89.3378C736.052 77.3774 719.83 70.6582 702.915 70.6582Z" fill="white"/>
</svg>
