<svg width="751" height="152" viewBox="0 0 751 152" fill="none" xmlns="http://www.w3.org/2000/svg">
<path d="M353.075 42.8C360.375 42.8 364.15 49.625 364.15 63.45C364.2 64.175 364.225 65.025 364.225 65.9C364.225 71.275 363.075 76.4 360.975 81L361.075 80.775C359.425 83.4 356.55 85.125 353.275 85.125C353.125 85.125 353 85.125 352.85 85.125C352.775 85.125 352.7 85.125 352.625 85.125C349.475 85.125 346.75 83.375 345.325 80.825L345.3 80.775C343.55 76.525 342.525 71.575 342.525 66.4C342.525 65.275 342.575 64.15 342.675 63.025V63.175C342.675 49.525 346.125 42.8 353.075 42.8ZM214.5 42.625C210.375 43.125 206.925 45.65 205.15 49.15L205.125 49.225C201.2 54.65 198.875 61.45 198.875 68.8C198.875 68.95 198.875 69.1 198.875 69.25C198.925 72.675 199.6 75.9 200.825 78.875L200.75 78.7C202.275 82.775 204.4 84.9 206.875 85.425C207.15 85.45 207.475 85.475 207.775 85.475C210.775 85.475 213.45 84.175 215.3 82.125C219.375 78.1 222.2 72.8 223.175 66.9L223.2 66.75C223.625 64.45 223.9 61.8 223.925 59.075V59.05C223.875 55.625 223.2 52.375 221.975 49.4L222.05 49.575C220.475 45.5 218.425 43.375 215.925 42.85C215.5 42.75 215.025 42.675 214.525 42.675L214.5 42.625ZM149.325 42.625C145.2 43.125 141.725 45.65 139.95 49.15L139.925 49.225C136 54.65 133.675 61.45 133.675 68.8C133.675 68.95 133.675 69.1 133.675 69.25C133.725 72.675 134.4 75.9 135.625 78.875L135.55 78.7C137.075 82.775 139.2 84.9 141.675 85.425C141.95 85.45 142.275 85.475 142.575 85.475C145.575 85.475 148.25 84.175 150.1 82.125C154.175 78.1 157 72.8 157.975 66.9L158 66.75C158.45 64.525 158.725 61.975 158.725 59.375C158.725 59.25 158.725 59.15 158.725 59.025C158.675 55.6 158 52.375 156.775 49.4L156.85 49.575C155.275 45.5 153.225 43.375 150.725 42.85C150.3 42.75 149.825 42.675 149.325 42.675V42.625ZM625.575 42.275C625.925 42.25 626.325 42.225 626.75 42.225C629.925 42.225 632.9 43.075 635.45 44.55L635.375 44.5C637.15 46 638.275 48.225 638.275 50.7C638.275 51.025 638.25 51.325 638.225 51.625V51.575C638.225 56.4583 634.008 58.9583 625.575 59.075V42.2V42.275ZM562.225 28.75V99.6H601.025V84.475H581.4V71.45H598.325V56.8H581.425V43.825H600.9V28.75H562.225ZM712.2 28.625V99.475H751V84.35H731.275V71.4H748.175V56.75H731.275V43.725H750.875V28.6L712.2 28.625ZM606.525 28.625V99.475H625.65V67.225H626.025L641.475 99.45H661.65L646.35 67.575C653.125 64.625 657.825 58.025 657.925 50.325C657.925 50.15 657.925 49.9 657.925 49.7C657.925 43.45 654.85 37.9 650.15 34.525L650.1 34.475C644.625 30.8 637.9 28.6 630.65 28.6C630 28.6 629.375 28.625 628.725 28.65H628.825L606.525 28.625ZM481.725 28.625L472.65 99.475H490.775L495.65 50.7L508.05 99.475H520.95L532.675 50.825L537.85 99.475H556.725L547.175 28.625H522.475L518.75 44.525C517.8 48.6 516.875 52.775 516.05 57.05L513.975 68.075C512 57.05 509.275 43.95 505.85 28.65L481.725 28.625ZM395.125 28.625L386.05 99.475H404.175L409.05 50.7L421.4 99.475H434.3L446.15 50.825L451.275 99.475H470.15L460.625 28.625H435.875L432.125 44.525C431.175 48.6 430.25 52.775 429.4 57.05L427.3 68.05C424.883 54.85 422.192 41.7083 419.225 28.625H395.125ZM695.45 26.75C695.025 26.725 694.5 26.725 694 26.725C674.55 26.725 658.775 42.5 658.775 61.95C658.775 62.375 658.775 62.8 658.8 63.225V63.175C658.775 63.7 658.75 64.3 658.75 64.9C658.75 74.9 662.675 84 669.075 90.725L669.05 90.7C675.6 97.225 684.6 101.25 694.575 101.25C695.075 101.25 695.575 101.25 696.075 101.225H696C699.875 101.175 703.6 100.6 707.1 99.525L706.825 99.6V82.7C704 83.625 700.75 84.2 697.4 84.3H697.35C697.175 84.3 696.95 84.3 696.725 84.3C691.75 84.3 687.275 82.175 684.15 78.775C681.025 74.675 679.15 69.5 679.15 63.85C679.15 58.3 680.975 53.175 684.075 49.05L684.025 49.125C686.9 45.65 691.225 43.45 696.05 43.45C696.2 43.45 696.325 43.45 696.475 43.45H696.45C700.15 43.475 703.725 44.025 707.1 45.05L706.825 44.975V28.175C703.525 27.275 699.75 26.775 695.85 26.775C695.725 26.775 695.6 26.775 695.45 26.775V26.75ZM307 26.75C306.575 26.725 306.05 26.725 305.55 26.725C286.1 26.725 270.325 42.5 270.325 61.95C270.325 62.375 270.325 62.8 270.35 63.225V63.175C270.325 63.7 270.3 64.3 270.3 64.9C270.3 74.9 274.225 84 280.625 90.725L280.6 90.7C287.125 97.225 296.15 101.25 306.1 101.25C306.6 101.25 307.1 101.25 307.625 101.225H307.55C311.425 101.175 315.15 100.6 318.65 99.525L318.375 99.6V82.7C315.55 83.625 312.3 84.2 308.95 84.3H308.9C308.725 84.3 308.5 84.3 308.275 84.3C303.3 84.3 298.825 82.175 295.7 78.775C292.575 74.675 290.7 69.5 290.7 63.85C290.7 58.3 292.525 53.175 295.625 49.05L295.575 49.125C298.45 45.65 302.775 43.45 307.6 43.45C307.75 43.45 307.875 43.45 308.025 43.45C311.75 43.475 315.275 44.025 318.65 45.05L318.375 44.975V28.175C315.075 27.275 311.3 26.775 307.375 26.775C307.25 26.775 307.125 26.775 306.975 26.775H307V26.75ZM352.875 26.675C352.45 26.65 351.975 26.65 351.475 26.65C343.1 26.65 335.575 30.325 330.425 36.175L330.4 36.2C325.35 42.85 322.3 51.25 322.3 60.375C322.3 61.3 322.325 62.2 322.4 63.1V62.975C322.35 63.85 322.3 64.85 322.3 65.875C322.3 75.425 325.325 84.25 330.5 91.45L330.4 91.325C335.6 97.425 343.3 101.275 351.9 101.275C352.525 101.275 353.15 101.25 353.775 101.225H353.7C354.15 101.25 354.7 101.275 355.225 101.275C363.75 101.275 371.35 97.425 376.45 91.4L376.475 91.35C381.525 84.4 384.575 75.725 384.575 66.3C384.575 65.4 384.55 64.475 384.5 63.575V63.7C384.55 62.9 384.575 61.975 384.575 61.05C384.575 51.7 381.5 43.05 376.275 36.1L376.35 36.2C370.95 30.3 363.225 26.625 354.65 26.625C354.025 26.625 353.4 26.65 352.8 26.675H352.875ZM214.025 25.225C216.025 25.225 217.975 25.45 219.825 25.875L219.65 25.85C226.85 27.225 232.8 31.7 236.175 37.8L236.225 37.925C239.4 43.45 241.25 50.05 241.25 57.125C241.25 57.575 241.25 58.025 241.225 58.475V58.4C241.225 58.55 241.225 58.725 241.225 58.925C241.225 69.6 238.2 79.6 232.975 88.075L233.1 87.825C228.55 96.975 219.375 103.225 208.7 103.475C206.675 103.425 204.725 103.2 202.85 102.75L203.025 102.775C195.825 101.4 189.85 96.95 186.475 90.875L186.425 90.75C183.275 85.125 181.4 78.425 181.4 71.275C181.4 70.875 181.4 70.475 181.425 70.075V70.125C181.425 69.975 181.425 69.8 181.425 69.6C181.425 58.95 184.45 49 189.7 40.55L189.575 40.775C194.15 31.65 203.3 25.45 213.95 25.2L214.025 25.225ZM148.825 25.225C150.825 25.225 152.775 25.45 154.625 25.875L154.45 25.85C161.65 27.275 167.575 31.725 170.975 37.8L171.05 37.925C174.225 43.45 176.1 50.1 176.1 57.175C176.1 57.6 176.1 58.025 176.075 58.45V58.4C176.075 58.525 176.075 58.7 176.075 58.85C176.075 69.55 173.05 79.575 167.8 88.05L167.925 87.8C163.375 96.95 154.2 103.2 143.525 103.45H143.5C141.475 103.4 139.55 103.175 137.675 102.725L137.85 102.75C130.65 101.375 124.675 96.925 121.3 90.85L121.225 90.725C118.1 85.125 116.25 78.45 116.25 71.35C116.25 70.9 116.25 70.475 116.275 70.025V70.1C116.275 69.9 116.275 69.7 116.275 69.475C116.275 58.875 119.275 48.95 124.5 40.55L124.375 40.775C128.95 31.65 138.1 25.45 148.75 25.2H148.775L148.825 25.225ZM108.375 13.95H109.325C111.475 14 113.425 14.775 114.95 16.05C116.775 17.45 117.975 19.55 118.15 21.975V22C118.175 22.225 118.175 22.475 118.175 22.75C118.175 24.3 117.775 25.775 117.1 27.05L117.125 27C112.125 37.95 108.55 50.625 107.1 63.95L107.05 64.5C105.125 74.75 104.025 86.575 104.025 98.625C104.025 100.575 104.05 102.5 104.1 104.425V104.15C104.15 104.55 104.175 105.025 104.175 105.5C104.175 107.5 103.7 109.4 102.85 111.05L102.875 110.975C101.85 113.075 99.8 114.55 97.4 114.725C97.375 114.725 97.35 114.725 97.325 114.725C94.025 114.725 91.1 113.225 89.15 110.875L89.125 110.85C78.3 98.65 70.3 83.725 66.275 67.25L66.125 66.55C59.3583 79.85 54.375 89.8333 51.175 96.5C45.05 108.275 39.825 114.275 35.475 114.575C32.65 114.8 30.275 112.425 28.175 107.45C20.8 84.925 14.8 58.2 11.275 30.725L11.05 28.475C10.975 28.05 10.925 27.55 10.925 27.025C10.925 24.95 11.6 23.05 12.75 21.5L12.725 21.525C14.25 19.575 16.625 18.325 19.275 18.325C19.725 18.225 20.25 18.175 20.775 18.175C24.95 18.175 28.325 21.55 28.325 25.725C28.325 25.75 28.325 25.75 28.325 25.775C31.55 47.525 35.125 65.95 38.85 81.025L61.6 37.625C62.9 34.325 65.825 31.925 69.375 31.4H69.425C74 31.075 76.85 34 77.975 40.15C80.4 53.675 83.8 65.6 88.275 77L87.825 75.7C88.9 54.775 93.875 35.25 102 17.5L101.6 18.5C102.85 15.875 105.4 14.05 108.4 13.9L108.375 13.95ZM23.6 0.0249863C10.575 0.0249863 0 10.6 0 23.625C0 23.675 0 23.725 0 23.75V102.75C0 115.825 10.6 126.45 23.675 126.45H121.8L166.575 151.45L156.375 126.45H230.625C243.7 126.45 254.35 115.85 254.35 102.75V23.725C254.35 10.65 243.75 0 230.65 0L23.6 0.0249863Z" fill="white"/>
</svg>
