<svg width="1334" height="400" viewBox="0 0 1334 400" fill="none" xmlns="http://www.w3.org/2000/svg">
<path d="M238 80C252.386 86.0893 266.587 92.5383 280.75 99.125C281.627 99.5326 282.503 99.9402 283.406 100.36C285.189 101.189 286.971 102.018 288.754 102.848C289.638 103.259 290.523 103.67 291.434 104.094C292.318 104.505 293.202 104.916 294.114 105.34C302.998 109.469 311.901 113.555 320.813 117.625C321.536 117.956 322.26 118.287 323.006 118.627C332.453 122.944 341.909 127.241 351.409 131.44C354.455 132.796 357.219 134.146 360 136C360.224 135.364 360.447 134.728 360.678 134.073C362 132 362 132 364.268 131.227C365.221 131.098 366.174 130.969 367.156 130.836C368.248 130.679 369.34 130.522 370.466 130.36C371.669 130.206 372.873 130.052 374.113 129.894C375.377 129.717 376.64 129.541 377.942 129.36C381.411 128.877 384.882 128.416 388.355 127.96C391.985 127.479 395.613 126.977 399.241 126.478C405.335 125.643 411.431 124.821 417.528 124.008C426.129 122.861 434.726 121.692 443.324 120.517C455.466 118.859 467.61 117.213 479.758 115.589C480.959 115.427 482.161 115.265 483.399 115.098C485.042 114.879 485.042 114.879 486.717 114.656C487.671 114.529 488.624 114.401 489.606 114.27C492 114 492 114 495 114C496.771 123.007 497.996 132.068 499.164 141.168C499.363 142.699 499.562 144.231 499.761 145.762C500.28 149.755 500.795 153.748 501.309 157.741C501.837 161.831 502.368 165.92 502.898 170.01C503.935 178.006 504.969 186.003 506 194C505.947 192.726 505.893 191.452 505.838 190.139C504.348 149.397 504.348 149.397 512.549 140.049C515.224 137.635 517.912 135.425 520.98 133.528C523.256 132.006 523.256 132.006 524.816 128.947C526.693 126.692 527.704 126.062 530.61 125.453C534.073 125.259 537.492 125.259 540.96 125.319C542.278 125.318 543.595 125.317 544.953 125.316C548.558 125.314 552.162 125.35 555.767 125.392C559.538 125.429 563.308 125.433 567.078 125.44C574.215 125.458 581.351 125.508 588.487 125.568C596.612 125.635 604.738 125.668 612.864 125.698C629.576 125.761 646.288 125.866 663 126C663.234 145.254 663.41 164.508 663.518 183.763C663.57 192.705 663.64 201.645 663.754 210.586C663.854 218.382 663.919 226.177 663.941 233.973C663.954 238.099 663.984 242.223 664.057 246.349C664.126 250.238 664.146 254.125 664.131 258.015C664.134 259.437 664.153 260.858 664.192 262.279C664.346 268.236 664.404 273.038 660.856 277.996C658.35 280.534 655.79 282.782 653 285C651.496 286.328 649.995 287.661 648.5 289C647.871 289.536 647.242 290.072 646.594 290.625C645.35 291.698 644.162 292.838 643 294C640.63 294.246 640.63 294.246 637.596 294.241C636.449 294.243 635.302 294.246 634.12 294.249C632.856 294.242 631.591 294.234 630.289 294.227C628.948 294.226 627.608 294.227 626.268 294.228C622.624 294.229 618.979 294.217 615.335 294.203C611.529 294.19 607.722 294.189 603.916 294.187C596.705 294.181 589.495 294.164 582.284 294.144C574.076 294.122 565.868 294.111 557.66 294.101C540.774 294.08 523.887 294.043 507 294C506.67 285.09 506.34 276.18 506 267C504.515 271.455 504.515 271.455 503 276C474.241 280.397 445.446 284.529 416.634 288.56C413.936 288.938 411.239 289.317 408.542 289.697C404.243 290.303 399.943 290.904 395.643 291.501C394.04 291.725 392.436 291.95 390.833 292.176C388.619 292.488 386.403 292.795 384.187 293.101C382.939 293.276 381.691 293.45 380.404 293.63C377.235 293.974 374.184 294.07 371 294C369.616 288.115 368.506 282.254 367.671 276.267C367.554 275.447 367.437 274.626 367.316 273.781C366.934 271.103 366.557 268.425 366.18 265.746C365.914 263.876 365.648 262.005 365.381 260.135C364.684 255.238 363.992 250.34 363.3 245.443C362.592 240.435 361.88 235.427 361.168 230.42C359.775 220.614 358.386 210.807 357 201C356.657 201.793 356.315 202.587 355.961 203.404C348.412 220.868 340.803 238.303 333.083 255.692C327.287 268.752 321.598 281.854 316 295C311.161 294.423 307.145 292.923 302.777 290.859C302.089 290.541 301.4 290.223 300.69 289.896C299.21 289.211 297.73 288.523 296.252 287.832C293.093 286.355 289.927 284.895 286.761 283.433C285.146 282.687 283.531 281.94 281.917 281.192C274.949 277.967 267.951 274.814 260.938 271.688C252.293 267.827 243.659 263.945 235.035 260.039C234.083 259.608 233.132 259.177 232.151 258.733C227.399 256.58 222.648 254.426 217.898 252.27C216.151 251.478 214.404 250.686 212.656 249.895C211.856 249.531 211.055 249.167 210.23 248.792C209.482 248.453 208.734 248.114 207.963 247.765C207.315 247.471 206.668 247.177 206.001 246.874C203.689 245.864 201.342 244.937 199 244C197.02 253.9 195.04 263.8 193 274C177.545 276.464 162.089 278.925 146.632 281.38C139.454 282.52 132.276 283.662 125.099 284.807C118.84 285.805 112.58 286.801 106.319 287.794C103.008 288.32 99.6971 288.846 96.3866 289.376C92.6797 289.968 88.9722 290.556 85.2645 291.142C83.6407 291.403 83.6407 291.403 81.984 291.67C75.3364 292.716 68.7093 293.479 62.0001 294C59.0485 278.887 56.3735 263.741 53.8555 248.551C53.6704 247.435 53.4853 246.319 53.2945 245.17C52.3197 239.291 51.3486 233.412 50.3802 227.531C49.5834 222.698 48.779 217.866 47.9681 213.034C46.9794 207.144 46.0035 201.252 45.0365 195.358C44.6689 193.13 44.2969 190.902 43.9204 188.676C43.396 185.569 42.8879 182.459 42.3836 179.349C42.2273 178.445 42.0711 177.542 41.91 176.611C40.4282 167.249 41.9012 158.678 43.8477 149.492C44.0239 148.641 44.2 147.789 44.3815 146.912C44.9371 144.232 45.4997 141.553 46.0626 138.875C46.4439 137.042 46.8248 135.208 47.2051 133.375C48.1314 128.916 49.064 124.457 50.0001 120C66.9151 117.26 83.8304 114.522 100.746 111.786C108.6 110.515 116.454 109.245 124.307 107.972C131.15 106.863 137.994 105.756 144.838 104.65C148.463 104.064 152.088 103.477 155.713 102.889C159.755 102.234 163.797 101.581 167.839 100.928C169.048 100.731 170.256 100.535 171.501 100.333C172.598 100.156 173.694 99.9793 174.824 99.7972C175.781 99.6424 176.738 99.4875 177.724 99.328C180 99 180 99 182 99C185.072 113.943 187.134 129.051 189.32 144.143C190.127 149.716 190.938 155.288 191.752 160.86C192.034 162.792 192.313 164.725 192.592 166.657C192.847 168.411 192.847 168.411 193.108 170.2C193.257 171.227 193.405 172.253 193.558 173.311C193.932 175.587 194.397 177.776 195 180C197.961 173.064 200.919 166.126 203.875 159.188C204.321 158.141 204.767 157.094 205.227 156.015C210.242 144.245 215.238 132.466 220.16 120.656C220.567 119.682 220.973 118.707 221.392 117.702C223.324 113.066 225.252 108.428 227.173 103.788C230.524 95.72 233.87 87.7105 238 80Z" fill="white"/>
<path d="M540.96 125.319C542.278 125.318 543.595 125.317 544.952 125.316C548.558 125.315 552.162 125.35 555.767 125.392C559.538 125.429 563.308 125.433 567.078 125.44C574.215 125.459 581.351 125.508 588.487 125.568C596.612 125.635 604.738 125.668 612.864 125.698C629.576 125.761 646.288 125.866 663 126C663.234 145.254 663.41 164.508 663.518 183.764C663.57 192.705 663.64 201.645 663.754 210.586C663.854 218.382 663.919 226.177 663.941 233.973C663.954 238.099 663.984 242.223 664.057 246.349C664.126 250.238 664.146 254.125 664.131 258.015C664.134 259.437 664.153 260.858 664.192 262.279C664.346 268.236 664.404 273.038 660.856 277.997C658.35 280.535 655.789 282.782 653 285C651.495 286.328 649.995 287.661 648.5 289C647.556 289.805 647.556 289.805 646.594 290.625C645.349 291.699 644.162 292.838 643 294C640.63 294.246 640.63 294.246 637.596 294.241C636.449 294.243 635.302 294.246 634.12 294.249C632.856 294.242 631.591 294.235 630.289 294.227C628.948 294.227 627.608 294.227 626.268 294.228C622.624 294.229 618.979 294.217 615.335 294.203C611.528 294.191 607.722 294.189 603.916 294.187C596.705 294.181 589.495 294.164 582.284 294.144C574.076 294.122 565.868 294.111 557.66 294.101C540.773 294.08 523.887 294.045 507 294C506.9 289.539 506.828 285.078 506.78 280.615C506.76 279.103 506.733 277.592 506.698 276.08C506.493 266.998 506.918 259.37 510.149 250.726C511.532 246.295 510.802 242.483 510 238C509.751 236 509.515 233.998 509.288 231.995C509.161 230.925 509.035 229.855 508.905 228.752C507.148 213.436 506.132 198.176 505.895 182.76C505.839 180.101 505.758 177.461 505.628 174.807C504.52 150.337 504.52 150.337 512.565 141.185C515.243 138.536 517.999 136.07 520.982 133.769C523.231 131.974 523.231 131.974 524.937 128.839C528.901 124.026 535.254 125.22 540.96 125.319Z" fill="white"/>
<path d="M182 99C184.819 112.865 186.853 126.846 188.907 140.841C189.299 143.513 189.694 146.184 190.093 148.855C192.305 163.669 194.406 178.476 195.987 193.373C196.612 199.16 197.447 204.85 198.549 210.567C200.723 222.287 200.206 233.48 198.188 245.188C198.022 246.196 197.856 247.205 197.686 248.244C196.676 254.316 195.567 260.367 194.427 266.415C194.289 267.148 194.151 267.882 194.009 268.637C193.673 270.425 193.337 272.212 193 274C177.545 276.464 162.089 278.925 146.632 281.38C139.454 282.52 132.276 283.662 125.099 284.807C118.84 285.805 112.58 286.801 106.319 287.794C103.008 288.32 99.6971 288.846 96.3866 289.376C92.6798 289.968 88.9722 290.556 85.2645 291.142C83.6407 291.403 83.6407 291.403 81.984 291.67C75.3364 292.716 68.7093 293.479 62.0001 294C59.0485 278.887 56.3735 263.741 53.8555 248.551C53.6704 247.435 53.4853 246.319 53.2945 245.17C52.3197 239.291 51.3486 233.412 50.3802 227.531C49.5834 222.698 48.779 217.866 47.9681 213.034C46.9794 207.144 46.0035 201.252 45.0365 195.358C44.6689 193.13 44.2969 190.902 43.9204 188.676C43.396 185.569 42.8879 182.459 42.3836 179.349C42.2273 178.445 42.0711 177.542 41.91 176.611C40.4282 167.249 41.9012 158.678 43.8477 149.492C44.0239 148.641 44.2 147.789 44.3815 146.912C44.9371 144.232 45.4997 141.553 46.0626 138.875C46.4439 137.042 46.8248 135.208 47.2051 133.375C48.1314 128.916 49.064 124.457 50.0001 120C66.9151 117.26 83.8304 114.522 100.746 111.786C108.6 110.515 116.454 109.245 124.307 107.972C131.15 106.863 137.994 105.756 144.838 104.65C148.463 104.064 152.088 103.477 155.713 102.889C159.755 102.234 163.797 101.581 167.839 100.928C169.048 100.731 170.256 100.535 171.501 100.333C173.146 100.068 173.146 100.068 174.824 99.7972C175.781 99.6424 176.738 99.4875 177.724 99.328C180 99 180 99 182 99Z" fill="white"/>
<path d="M238 80C252.386 86.0893 266.586 92.5383 280.75 99.125C281.626 99.5326 282.503 99.9402 283.406 100.36C285.189 101.189 286.971 102.018 288.754 102.848C289.638 103.259 290.522 103.67 291.433 104.094C292.318 104.505 293.202 104.916 294.113 105.34C302.997 109.469 311.901 113.555 320.812 117.625C321.898 118.121 321.898 118.121 323.005 118.627C332.453 122.944 341.909 127.241 351.409 131.44C354.454 132.796 357.219 134.146 360 136C360.224 135.364 360.447 134.728 360.678 134.073C362 132 362 132 364.268 131.224C365.221 131.094 366.174 130.963 367.156 130.829C368.248 130.671 369.34 130.512 370.465 130.349C371.669 130.193 372.873 130.038 374.113 129.878C376.008 129.611 376.008 129.611 377.942 129.339C381.41 128.852 384.882 128.387 388.355 127.927C391.985 127.442 395.613 126.938 399.241 126.436C405.335 125.596 411.431 124.77 417.528 123.953C424.581 123.008 431.631 122.045 438.679 121.073C446.178 120.038 453.678 119.014 461.178 117.994C463.342 117.699 465.505 117.402 467.668 117.106C471.697 116.554 475.727 116.014 479.757 115.475C480.959 115.31 482.161 115.144 483.399 114.973C484.494 114.829 485.589 114.685 486.717 114.536C488.147 114.343 488.147 114.343 489.606 114.147C492 114 492 114 495 115C491.37 125.23 487.74 135.46 484 146C462.258 149.469 440.504 152.665 418.684 155.595C414.573 156.147 410.464 156.705 406.355 157.265C403.12 157.706 399.884 158.142 396.649 158.578C395.133 158.783 393.617 158.988 392.101 159.195C383.079 160.424 374.087 161.389 365 162C365.99 167.94 365.99 167.94 367 174C362.604 173.121 359.115 171.842 355.121 169.965C354.45 169.655 353.778 169.345 353.087 169.026C351.632 168.353 350.178 167.679 348.726 167.003C344.78 165.166 340.825 163.347 336.871 161.527C336.053 161.15 335.234 160.773 334.391 160.385C325.963 156.509 317.485 152.749 309 149C294.966 142.795 280.993 136.464 267.053 130.051C266.347 129.726 265.641 129.402 264.913 129.068C263.603 128.466 262.293 127.862 260.984 127.258C257.689 125.743 254.38 124.313 251 123C246.139 132.259 242.05 141.857 237.875 151.438C236.271 155.109 234.665 158.779 233.058 162.449C232.646 163.393 232.233 164.336 231.808 165.308C228.858 172.052 225.889 178.788 222.91 185.52C222.492 186.464 222.074 187.408 221.644 188.38C220.021 192.046 218.398 195.712 216.772 199.377C211.081 212.209 205.502 225.086 200 238C199.67 238 199.34 238 199 238C199.023 237.042 199.046 236.084 199.07 235.098C199.265 223.366 198.328 211.967 196.164 200.43C196.023 199.677 195.882 198.925 195.737 198.15C195.464 196.725 195.178 195.303 194.878 193.883C193.138 185.037 195.317 178.432 198.84 170.449C199.431 169.075 199.431 169.075 200.034 167.673C201.326 164.674 202.632 161.681 203.937 158.688C205.3 155.535 206.658 152.381 208.016 149.227C208.948 147.065 209.88 144.903 210.814 142.742C213.977 135.411 217.087 128.059 220.156 120.688C220.563 119.711 220.97 118.734 221.389 117.728C222.952 113.97 224.514 110.211 226.07 106.451C233.691 88.0459 233.691 88.0459 238 80Z" fill="white"/>
<path d="M715 127C798.556 127 798.556 127 810.18 137.941C818.582 147.443 821.591 158.346 820.824 170.871C819.51 180.229 815.196 187.96 807.746 193.816C805.281 195.487 802.723 196.805 800 198C802.401 199.601 804.695 200.879 807.25 202.188C816.013 207.081 821.751 214.15 824.544 223.899C826.977 235.113 825.571 247.399 819.68 257.195C813.375 266.256 805.553 271.881 794.828 274.538C791.327 275.11 787.899 275.132 784.364 275.114C783.6 275.114 782.836 275.114 782.049 275.114C779.589 275.113 777.128 275.106 774.668 275.098C773.144 275.096 771.62 275.095 770.096 275.095C764.46 275.089 758.824 275.075 753.188 275.062C740.586 275.042 727.984 275.021 715 275C715 226.16 715 177.32 715 127ZM741 149C741 162.2 741 175.4 741 189C746.94 189.083 752.88 189.165 759 189.25C760.859 189.286 762.718 189.323 764.633 189.36C766.13 189.372 767.628 189.382 769.125 189.391C769.883 189.411 770.641 189.432 771.422 189.453C777.951 189.457 782.877 187.424 788.023 183.43C792.651 178.107 794.298 172.584 793.84 165.535C792.939 160.28 791.302 157.346 787 154C780.424 149.561 774.868 148.846 767.074 148.902C766.411 148.903 765.748 148.904 765.064 148.905C762.605 148.911 760.146 148.925 757.688 148.938C752.181 148.958 746.674 148.979 741 149ZM741 211C741 224.86 741 238.72 741 253C749.106 253.062 749.106 253.062 757.375 253.125C759.059 253.143 760.743 253.161 762.478 253.18C774.629 253.257 784.494 253.211 793.75 244.375C797.383 239.681 798.334 234.203 797.727 228.379C796.386 222.662 793.94 219.265 789.523 215.473C782.995 211.663 776.489 210.555 769.027 210.707C768.309 210.71 767.591 210.713 766.851 210.716C764.213 210.732 761.575 210.774 758.938 210.812C753.018 210.874 747.099 210.936 741 211Z" fill="white"/>
<path d="M312.051 158.832C324.37 167.284 331.685 178.325 335 193C336.63 212.583 333.184 229.384 321.312 245.312C312.836 255.204 303.224 260.354 291 264C290.01 264.33 289.02 264.66 288 265C272.091 266.014 257.714 262.691 245.187 252.312C234.623 242.227 229.065 228.326 228.707 213.821C228.551 195.48 235.364 179.445 248 166C265.233 149.63 291.787 146.663 312.051 158.832Z" fill="#06080D"/>
<path d="M571.375 167.75C572.501 167.76 572.501 167.76 573.651 167.771C578.987 167.87 583.913 168.291 589 170C589.806 170.257 590.611 170.513 591.441 170.778C597.934 173.087 602.842 176.48 608 181C608.606 181.5 609.212 182.001 609.836 182.516C620.205 191.806 625.142 205.031 626.308 218.586C626.873 234.894 622.378 249.685 611.812 262.25C603.925 270.616 593.172 277.352 581.496 278.177C558.369 278.716 558.369 278.716 550 274C549.085 273.514 548.169 273.028 547.226 272.528C533.649 264.66 525.916 252.643 521.611 237.779C520.514 232.788 520.469 227.844 520.5 222.75C520.506 221.649 520.513 220.548 520.519 219.414C520.882 203.223 527.092 191.416 538.75 180.188C548.097 172.151 559.05 167.59 571.375 167.75Z" fill="#06080D"/>
<path d="M250 122C259.855 125.982 269.521 130.355 279.195 134.753C283.886 136.886 288.58 139.013 293.273 141.141C294.203 141.562 295.133 141.984 296.091 142.418C303.738 145.885 311.397 149.323 319.062 152.75C321.319 153.763 323.576 154.776 325.832 155.789C330.459 157.866 335.092 159.929 339.729 161.983C342.819 163.354 345.904 164.734 348.989 166.116C350.486 166.784 351.984 167.448 353.485 168.109C355.562 169.024 357.633 169.952 359.703 170.883C360.896 171.413 362.089 171.943 363.317 172.489C366 174 366 174 367 177C366.398 178.999 366.398 178.999 365.375 181.289C364.997 182.15 364.62 183.011 364.23 183.898C363.824 184.798 363.418 185.698 363 186.625C362.227 188.366 361.457 190.109 360.688 191.852C360.263 192.81 359.839 193.769 359.402 194.757C357.801 198.46 356.276 202.19 354.754 205.926C351.057 214.973 347.119 223.907 343.149 232.836C341.064 237.528 338.986 242.223 336.906 246.918C336.491 247.854 336.076 248.791 335.649 249.756C331.722 258.619 327.823 267.494 323.938 276.375C323.644 277.044 323.351 277.714 323.049 278.403C322.228 280.276 321.409 282.15 320.59 284.023C319.907 285.585 319.907 285.585 319.211 287.177C318.099 289.77 317.034 292.376 316 295C311.161 294.423 307.145 292.923 302.777 290.859C302.089 290.541 301.4 290.223 300.69 289.896C299.209 289.211 297.73 288.523 296.252 287.832C293.093 286.355 289.927 284.895 286.761 283.433C285.146 282.687 283.531 281.94 281.917 281.192C274.949 277.967 267.95 274.814 260.938 271.688C249.421 266.541 237.919 261.363 226.424 256.168C224.53 255.312 222.636 254.457 220.742 253.602C218.079 252.4 215.416 251.196 212.754 249.992C211.958 249.633 211.163 249.275 210.343 248.905C206.183 247.021 202.07 245.075 198 243C198.642 239.032 199.868 235.695 201.492 232.023C202.022 230.818 202.552 229.613 203.099 228.371C203.691 227.039 204.283 225.707 204.875 224.375C205.499 222.962 206.122 221.548 206.745 220.135C208.46 216.247 210.18 212.363 211.902 208.479C213.779 204.241 215.651 200.001 217.523 195.762C219.896 190.39 222.27 185.018 224.645 179.647C233.136 160.448 241.571 141.226 250 122ZM252 163C251.386 163.45 250.773 163.9 250.141 164.363C242.684 170.22 238.189 178.186 234.188 186.625C233.897 187.234 233.607 187.843 233.309 188.47C227.05 202.214 227.394 217.379 231.738 231.66C233.595 236.574 235.903 240.768 239 245C239.49 245.695 239.98 246.39 240.484 247.105C247.496 256.078 258.028 261.555 269 264C269.611 264.179 270.222 264.358 270.852 264.543C282.984 267.124 295.404 264.448 305.988 258.25C308.414 256.583 310.717 254.856 313 253C313.835 252.37 314.671 251.739 315.531 251.09C326.178 242.078 334.055 226.245 335.217 212.415C335.7 201.485 335.86 191.038 331 181C330.457 179.813 330.457 179.813 329.902 178.602C323.848 166.574 313.986 158.599 301.625 153.562C283.929 148.256 266.476 151.915 252 163Z" fill="white"/>
<path d="M1080 127C1088.25 127 1096.5 127 1105 127C1105.33 156.04 1105.66 185.08 1106 215C1116.38 203.899 1116.38 203.899 1126.59 192.66C1130.27 188.599 1134.02 184.606 1137.78 180.615C1138.34 180.019 1138.9 179.423 1139.47 178.809C1140.05 178.207 1140.63 177.605 1141.23 176.986C1143.08 174.993 1143.08 174.993 1144.7 172.552C1147.54 168.688 1149.46 166.337 1154.26 165.286C1158.04 165.115 1161.72 165.213 1165.5 165.438C1167.45 165.498 1167.45 165.498 1169.44 165.561C1172.63 165.666 1175.81 165.814 1179 166C1174.8 171.889 1170.2 177.164 1165.19 182.375C1163.78 183.867 1162.36 185.359 1160.95 186.852C1158.63 189.301 1156.29 191.735 1153.92 194.148C1153.1 195.007 1152.28 195.865 1151.44 196.75C1150.73 197.467 1150.03 198.183 1149.31 198.922C1147.78 200.889 1147.78 200.889 1148.17 203.096C1149.33 207.15 1151.15 210.771 1153.02 214.543C1153.42 215.377 1153.83 216.21 1154.25 217.069C1155.58 219.778 1156.91 222.483 1158.25 225.188C1159.16 227.043 1160.07 228.9 1160.98 230.756C1165.03 238.995 1169.1 247.221 1173.22 255.422C1173.53 256.037 1173.84 256.652 1174.16 257.286C1175.56 260.081 1176.97 262.872 1178.39 265.659C1178.88 266.616 1179.36 267.573 1179.86 268.559C1180.28 269.376 1180.69 270.194 1181.12 271.037C1182 273 1182 273 1182 275C1173.09 275 1164.18 275 1155 275C1153.88 272.749 1152.75 270.499 1151.59 268.18C1148.89 262.778 1146.19 257.381 1143.47 251.99C1141.88 248.835 1140.29 245.678 1138.71 242.522C1137.89 240.898 1137.07 239.275 1136.25 237.653C1135.05 235.273 1133.85 232.891 1132.66 230.508C1132.29 229.781 1131.92 229.054 1131.54 228.305C1129 223.228 1129 223.228 1129 221C1125.09 223.841 1122.09 227.06 1118.97 230.707C1116.02 234.135 1112.96 237.46 1109.92 240.801C1106.33 244.919 1105.73 247.242 1105.59 252.637C1105.55 253.935 1105.51 255.234 1105.47 256.572C1105.44 257.944 1105.41 259.316 1105.38 260.688C1105.34 262.071 1105.3 263.454 1105.26 264.838C1105.16 268.225 1105.08 271.612 1105 275C1096.75 275 1088.5 275 1080 275C1080 226.16 1080 177.32 1080 127Z" fill="white"/>
<path d="M924.688 174.688C934.654 184.127 941.248 196.776 942.177 210.64C942.609 230.543 941.717 248.097 927.25 263.313C915.148 274.726 902.262 277.968 886 278C874.865 277.389 863.867 273.05 856 265C843.321 249.494 839.107 231.89 840.211 212.246C842.066 196.582 848.511 182.616 860.863 172.496C879.983 159.109 906.67 159.643 924.688 174.688ZM876 190C867.348 201.006 865.957 214.411 867 228C868.557 238.996 871.776 246.75 880.352 253.871C885.4 257.329 892.174 256.374 898 256C903.884 254.257 907.687 250.029 911 245C917.392 232.497 917.08 214.784 913.313 201.5C910.854 194.997 908.357 190.03 902.125 186.625C893.146 182.731 883.477 183.354 876 190Z" fill="white"/>
<path d="M1040 174C1040.68 174.528 1041.36 175.057 1042.05 175.602C1053.69 185.876 1058.18 201.799 1059.27 216.746C1059.72 233.397 1055.97 248.931 1045.25 261.937C1034.81 272.764 1021.74 277.628 1006.94 278.035C993.148 277.912 982.679 273.717 972.449 264.621C960.31 252.089 956.48 234.05 956.58 217.289C956.998 201.625 961.87 188.346 972.562 176.687C991.134 159.186 1020.11 158.366 1040 174ZM990.75 192.187C985.138 201.207 983.803 209.728 983.75 220.125C983.729 221.12 983.709 222.115 983.687 223.141C983.635 233.156 985.731 242.011 992 250C996.975 254.611 1001.2 256.554 1008 257C1014.72 256.263 1020.25 254.407 1024.63 248.984C1032.8 237.4 1033.25 223.023 1031.54 209.301C1029.86 200.153 1027.03 192.744 1019.5 186.937C1009.26 181.284 998.546 184.608 990.75 192.187Z" fill="white"/>
<path d="M1263.81 172.625C1268.17 176.746 1271 181.347 1273 187C1273 187.99 1273 188.98 1273 190C1269.92 190.673 1266.83 191.337 1263.75 192C1262.88 192.191 1262 192.381 1261.11 192.578C1260.26 192.759 1259.42 192.939 1258.55 193.125C1257.77 193.292 1257 193.46 1256.2 193.633C1254 194 1254 194 1250 194C1249.44 192.907 1248.89 191.814 1248.31 190.687C1246.06 186.743 1243.62 184.822 1239.23 183.445C1231.37 181.878 1223.09 182.19 1216 186C1213.25 188.998 1213.01 190.49 1212.94 194.562C1214.32 199.048 1215.97 199.72 1220 202C1223.35 203.157 1223.35 203.157 1227 203.937C1227.67 204.098 1228.35 204.259 1229.05 204.424C1233.21 205.405 1237.4 206.3 1241.59 207.187C1243.02 207.499 1243.02 207.499 1244.49 207.817C1246.36 208.219 1248.23 208.61 1250.11 208.986C1260.49 211.216 1268.89 215.06 1275 224C1279.89 232.757 1280.1 242.922 1278.06 252.562C1275.18 261.829 1268.68 267.455 1260.31 271.937C1242.2 280.176 1223.39 279.713 1204.75 273.375C1196.29 269.71 1190 263.104 1185.74 255.043C1185 253 1185 253 1185 249C1188.44 248.329 1191.87 247.664 1195.31 247C1196.29 246.809 1197.27 246.618 1198.27 246.422C1199.21 246.241 1200.15 246.061 1201.11 245.875C1201.98 245.707 1202.84 245.54 1203.73 245.367C1206 245 1206 245 1209 245C1210.35 246.986 1211.68 248.988 1213 251C1218.78 256.471 1224.73 257.37 1232.38 257.312C1233.13 257.308 1233.88 257.304 1234.66 257.3C1240.92 257.172 1246.14 256.673 1250.94 252.187C1252.32 249.348 1252.87 247.165 1253 244C1251.13 239.269 1248.53 237.993 1244 236C1241.85 235.446 1239.68 234.972 1237.49 234.57C1236.26 234.332 1235.02 234.093 1233.75 233.848C1231.19 233.37 1228.63 232.896 1226.07 232.426C1213.73 230.031 1202.49 226.77 1194 217C1188.33 208.317 1187.77 198.524 1189.43 188.398C1191.94 179.656 1197.95 172.92 1205.61 168.215C1222.72 159.53 1248.7 160.276 1263.81 172.625Z" fill="white"/>
<path d="M182 99C179.642 111.886 177.282 124.772 174.75 137.625C174.587 138.465 174.425 139.304 174.257 140.169C173.118 145.882 173.118 145.882 172 147C169.901 147.395 167.79 147.731 165.677 148.044C165.015 148.143 164.353 148.243 163.67 148.345C161.455 148.677 159.239 149.002 157.023 149.328C155.462 149.561 153.901 149.794 152.34 150.028C148.194 150.648 144.046 151.263 139.898 151.876C132.585 152.959 125.273 154.049 117.961 155.141C117.163 155.26 116.365 155.379 115.543 155.501C103.073 157.361 90.6205 159.313 78.1795 161.355C49.1705 166.11 49.1705 166.11 41 166C41.7458 161.895 42.4975 157.791 43.25 153.688C43.455 152.559 43.6599 151.43 43.8711 150.268C45.1778 143.16 46.5939 136.084 48.0928 129.015C48.2769 128.144 48.4609 127.273 48.6506 126.375C49.0997 124.25 49.5498 122.125 50 120C66.915 117.26 83.8304 114.522 100.746 111.786C108.6 110.515 116.454 109.245 124.307 107.972C131.15 106.863 137.994 105.756 144.838 104.65C148.463 104.064 152.088 103.477 155.713 102.889C159.755 102.234 163.797 101.581 167.839 100.928C169.048 100.731 170.256 100.535 171.501 100.333C173.146 100.068 173.146 100.068 174.824 99.7972C175.781 99.6424 176.738 99.4875 177.724 99.328C180 99 180 99 182 99Z" fill="white"/>
<path d="M455 160C458.415 161.962 459.551 163.732 460.855 167.418C462.892 175.242 463.747 183.283 464.735 191.291C465.799 199.81 467.117 208.279 468.5 216.75C468.718 218.092 468.935 219.433 469.153 220.775C470.069 226.401 470.997 232.023 471.988 237.637C475.571 258.214 475.571 258.214 474 267C470.8 270.833 468.723 272.801 463.75 273.375C460.109 273.011 457.953 272.527 455.277 269.965C452.224 265.268 451.836 259.436 451 254C450.719 252.294 450.438 250.588 450.156 248.883C447.798 234.149 447.798 234.149 448 227C446.866 227.289 445.731 227.577 444.563 227.875C439.044 229.12 433.472 229.709 427.854 230.302C424.751 230.637 421.971 231.009 419 232C417.439 232.067 415.875 232.085 414.313 232.062C413.504 232.053 412.696 232.044 411.863 232.035C411.248 232.023 410.634 232.012 410 232C410.455 235.271 410.914 238.542 411.375 241.812C411.511 242.778 411.647 243.743 411.786 244.737C412.477 249.581 413.221 254.389 414.188 259.187C415.313 265.185 416.142 271.175 413.813 276.937C410.894 280.259 408.437 281.755 404.063 282.5C399.971 281.832 397.526 280.192 395 277C391.482 269.786 390.947 261.538 390 253.687C389.744 251.654 389.484 249.62 389.224 247.587C388.969 245.592 388.716 243.597 388.464 241.601C387.887 237.121 387.245 232.653 386.563 228.187C386.45 227.443 386.337 226.698 386.221 225.931C385.514 221.279 384.784 216.632 384.049 211.985C383.582 209.023 383.121 206.061 382.661 203.099C382.432 201.636 382.2 200.174 381.965 198.712C378.556 177.475 378.556 177.475 381.75 172C384.903 169.197 386.718 168.136 390.938 167.687C394.493 168.05 396.196 168.802 399 171C401.846 174.933 402.579 178.275 403.168 183.058C403.253 183.725 403.337 184.392 403.424 185.079C403.6 186.483 403.77 187.887 403.935 189.292C404.187 191.429 404.454 193.563 404.725 195.697C405.441 201.485 406.11 207.156 406 213C407.3 212.826 407.3 212.826 408.627 212.649C411.877 212.214 415.128 211.78 418.378 211.346C419.778 211.159 421.179 210.972 422.579 210.784C436.898 208.869 436.898 208.869 444 208C443.849 207.078 443.697 206.155 443.541 205.205C442.976 201.745 442.418 198.284 441.864 194.822C441.624 193.331 441.381 191.841 441.136 190.351C437.757 169.781 437.757 169.781 440.313 164.062C444.404 159.062 448.992 159.135 455 160Z" fill="#06080D"/>
<path d="M139 162C143.589 165.774 144.309 169.296 145 175C146.581 195.11 137.195 209.315 125.291 224.357C117.457 234.327 111.347 244.499 106 256C106.845 255.818 107.69 255.636 108.56 255.449C137.001 249.412 137.001 249.412 147.625 249.375C148.668 249.359 148.668 249.359 149.732 249.344C154.338 249.474 156.76 250.784 160 254C161.762 257.523 161.069 261.297 160 265C153.978 270.462 146.127 271.453 138.367 272.691C136.996 272.917 136.996 272.917 135.597 273.146C132.69 273.623 129.783 274.093 126.875 274.562C123.96 275.036 121.046 275.512 118.132 275.989C116.323 276.285 114.513 276.579 112.703 276.871C111.471 277.071 111.471 277.071 110.214 277.275C109.495 277.392 108.776 277.508 108.035 277.627C106.647 277.881 105.268 278.185 103.9 278.53C98.5448 279.854 92.7816 279.982 87.9375 277.312C82.4256 270.734 83.4048 262.264 83.8091 254.15C84.2388 249.311 85.8417 245.304 88 241C88.7464 239.449 88.7464 239.449 89.5078 237.867C94.2847 228.469 100.437 220.365 107.066 212.23C117.51 199.417 117.51 199.417 123 184C121.375 184.305 119.749 184.609 118.124 184.915C116.69 185.183 115.256 185.45 113.821 185.716C110.139 186.4 106.464 187.104 102.797 187.867C86.2209 191.273 86.2209 191.273 79 190C76.0264 187.784 74.6304 186.261 73 183C72.5964 179.367 72.7084 177.501 74.5625 174.312C79.7524 169.389 86.3323 168.326 93.1601 167.176C94.0271 167.025 94.894 166.873 95.7872 166.718C97.6161 166.402 99.4457 166.09 101.276 165.783C104.033 165.317 106.785 164.831 109.537 164.342C131.316 160.566 131.316 160.566 139 162Z" fill="#06080D"/>
<path d="M495 115C491.37 125.23 487.74 135.46 484 146C461.318 149.626 438.617 152.892 415.849 155.921C409.227 156.802 402.606 157.691 395.985 158.578C393.704 158.883 391.423 159.187 389.141 159.49C387.75 159.676 386.358 159.862 384.966 160.048C383.762 160.208 382.557 160.369 381.316 160.534C379.11 160.844 376.907 161.184 374.711 161.554C371.083 162.151 367.672 162.063 364 162C363.066 158.509 362.185 155.007 361.313 151.5C361.049 150.518 360.785 149.536 360.514 148.524C360.278 147.557 360.043 146.59 359.801 145.594C359.463 144.274 359.463 144.274 359.118 142.928C358.998 139.946 359.418 138.539 360.493 135.817C360.772 135.101 361.052 134.385 361.34 133.647C361.558 133.104 361.775 132.56 362 132C378.897 129.628 395.795 127.263 412.694 124.908C420.541 123.814 428.387 122.718 436.232 121.615C443.068 120.654 449.905 119.699 456.743 118.749C460.365 118.245 463.987 117.74 467.607 117.228C471.646 116.657 475.686 116.098 479.726 115.539C480.931 115.367 482.135 115.195 483.377 115.018C485.024 114.793 485.024 114.793 486.704 114.563C487.66 114.43 488.616 114.296 489.601 114.158C492 114 492 114 495 115Z" fill="white"/>
<path d="M298.312 175C305.869 178.91 310.336 183.925 313 192C314.653 206.439 310.762 220.31 302 232C296.707 238.328 291.323 243.352 282.922 244.375C272.376 244.767 265.753 241.887 257.824 235.172C252.983 229.408 251.29 223.756 251.437 216.313C251.447 215.529 251.456 214.746 251.466 213.939C251.907 201.476 257.863 189.342 266.25 180.188C275.961 171.201 286.359 169.259 298.312 175Z" fill="white"/>
<path d="M586.492 190.684C594.068 194.66 597.86 201.255 601 209C604.157 219.975 602.85 234.081 597.898 244.266C594.321 250.498 589.485 255.162 582.535 257.492C574.636 259.074 565.815 259.468 558.711 255.266C558.146 254.848 557.582 254.43 557 254C556.172 253.419 555.345 252.837 554.492 252.238C551.644 249.681 550.375 247.388 548.75 243.938C548.25 242.895 547.75 241.852 547.234 240.777C544.629 234.914 544.744 229.769 544.687 223.438C544.658 222.39 544.629 221.343 544.6 220.264C544.517 210.097 547.057 202.165 554.062 194.691C563.376 186.561 575.386 186.143 586.492 190.684Z" fill="white"/>
<path d="M540.96 125.319C542.278 125.318 543.595 125.317 544.952 125.316C548.558 125.314 552.162 125.35 555.767 125.391C559.538 125.429 563.308 125.432 567.078 125.44C574.215 125.458 581.351 125.507 588.487 125.568C596.612 125.635 604.738 125.668 612.864 125.698C629.576 125.761 646.288 125.866 663 126C662.067 127.261 661.132 128.521 660.196 129.78C659.416 130.832 659.416 130.832 658.619 131.906C656.184 135.055 653.491 137.93 650.75 140.812C646.61 145.185 646.61 145.185 643 150C640.667 150.376 640.667 150.376 637.686 150.378C635.995 150.391 635.995 150.391 634.27 150.403C632.406 150.394 632.406 150.394 630.504 150.385C628.502 150.393 626.5 150.401 624.499 150.409C622.344 150.415 620.189 150.414 618.033 150.41C613.546 150.404 609.06 150.42 604.572 150.439C594.238 150.48 583.903 150.491 573.568 150.502C564.098 150.513 554.627 150.53 545.157 150.571C540.694 150.589 536.23 150.593 531.767 150.586C529.66 150.584 527.554 150.59 525.448 150.599C522.875 150.609 520.303 150.609 517.73 150.596C516.039 150.609 516.039 150.609 514.314 150.621C512.839 150.622 512.839 150.622 511.333 150.623C510.563 150.748 509.793 150.872 509 151C508.34 151.99 507.68 152.98 507 154C506.725 151.021 506.674 149.477 508.389 146.967C509.028 146.319 509.666 145.671 510.324 145.004C511.373 143.918 511.373 143.918 512.443 142.81C513.184 142.068 513.924 141.327 514.687 140.562C516.13 139.086 517.572 137.608 519.012 136.129C519.656 135.48 520.3 134.831 520.964 134.162C523.159 131.991 523.159 131.991 524.817 128.907C528.891 124.063 535.144 125.218 540.96 125.319Z" fill="white"/>
<path d="M237 81C239 82 239 82 240.253 85.3989C240.723 86.9116 241.184 88.4273 241.637 89.9453C241.88 90.7485 242.124 91.5518 242.375 92.3794C242.889 94.0847 243.399 95.7913 243.905 97.499C244.679 100.098 245.476 102.69 246.275 105.281C246.772 106.94 247.268 108.599 247.762 110.258C248.001 111.028 248.241 111.798 248.487 112.591C250.566 119.756 249.636 125.151 246.621 131.98C245.87 133.697 245.87 133.697 245.105 135.448C244.549 136.695 243.993 137.941 243.437 139.188C242.853 140.515 242.269 141.843 241.686 143.171C240.122 146.726 238.547 150.276 236.968 153.825C236.013 155.97 235.06 158.116 234.108 160.263C231.519 166.1 228.926 171.936 226.327 177.769C220.889 189.975 215.498 202.202 210.125 214.438C209.73 215.336 209.335 216.234 208.929 217.159C207.808 219.709 206.689 222.259 205.57 224.809C205.238 225.565 204.905 226.322 204.562 227.102C202.98 230.712 201.435 234.328 200 238C199.67 238 199.34 238 199 238C199.023 237.042 199.046 236.084 199.07 235.098C199.265 223.366 198.328 211.967 196.164 200.43C196.023 199.677 195.882 198.925 195.737 198.15C195.464 196.725 195.178 195.303 194.878 193.883C193.138 185.037 195.317 178.432 198.84 170.449C199.234 169.533 199.628 168.617 200.034 167.673C201.326 164.674 202.632 161.681 203.937 158.688C205.299 155.536 206.656 152.383 208.013 149.23C208.944 147.068 209.876 144.907 210.809 142.746C215.629 131.577 220.322 120.355 225 109.125C226.114 106.45 227.229 103.776 228.345 101.102C229.002 99.5268 229.658 97.9513 230.313 96.3754C232.465 91.2153 234.71 86.1005 237 81Z" fill="white"/>
<path d="M662 127C662.33 127 662.66 127 663 127C663.234 146.124 663.41 165.247 663.518 184.372C663.57 193.253 663.64 202.133 663.755 211.013C663.854 218.756 663.919 226.499 663.941 234.242C663.954 238.34 663.984 242.436 664.057 246.534C664.126 250.397 664.146 254.258 664.131 258.122C664.134 259.533 664.154 260.945 664.192 262.356C664.346 268.291 664.396 273.055 660.854 277.991C658.348 280.527 655.784 282.777 653 285C651.515 286.327 650.035 287.659 648.563 289C646.42 290.861 644.375 292.417 642 294C641.92 275.284 641.892 256.569 641.925 237.853C641.939 229.162 641.936 220.471 641.894 211.781C641.857 204.202 641.852 196.624 641.884 189.045C641.9 185.035 641.901 181.026 641.863 177.016C641.828 173.234 641.836 169.454 641.876 165.672C641.886 163.638 641.852 161.604 641.817 159.571C641.982 149.754 645.164 144.862 652 138C653.018 136.846 654.029 135.687 655.031 134.52C655.846 133.626 656.661 132.733 657.5 131.812C658.335 130.891 659.171 129.969 660.031 129.02C660.681 128.353 661.331 127.687 662 127Z" fill="white"/>
<path d="M181 101C181.66 101.33 182.32 101.66 183 102C183.638 104.755 183.638 104.755 184.189 108.494C184.292 109.174 184.395 109.854 184.501 110.555C184.841 112.826 185.169 115.098 185.496 117.371C185.732 118.967 185.969 120.562 186.206 122.157C186.705 125.525 187.198 128.894 187.686 132.263C188.3 136.502 188.925 140.738 189.555 144.974C191.965 161.206 194.326 177.429 196.041 193.752C196.644 199.408 197.471 204.964 198.546 210.551C200.718 222.278 200.209 233.473 198.188 245.188C198.007 246.271 197.827 247.354 197.642 248.47C196.21 257.002 194.67 265.512 193 274C190.954 270.931 190.594 269.521 190.09 265.964C189.938 264.925 189.787 263.886 189.631 262.816C189.473 261.678 189.315 260.54 189.152 259.367C188.893 257.573 188.893 257.573 188.629 255.743C188.255 253.147 187.883 250.551 187.516 247.954C186.537 241.04 185.534 234.129 184.531 227.219C184.377 226.156 184.377 226.156 184.22 225.071C182.701 214.585 181.093 204.117 179.406 193.656C179.094 191.711 179.094 191.711 178.775 189.727C177.968 184.721 177.159 179.716 176.333 174.713C175.766 171.276 175.208 167.837 174.652 164.398C174.484 163.402 174.316 162.405 174.142 161.379C172.519 151.246 172.659 141.995 174.75 131.957C174.928 131.063 175.105 130.168 175.288 129.247C175.849 126.433 176.424 123.623 177 120.812C177.386 118.888 177.772 116.962 178.156 115.037C179.093 110.356 180.043 105.677 181 101Z" fill="white"/>
<path d="M494 115C496.938 117.938 496.795 121.354 497.281 125.32C497.45 126.613 497.45 126.613 497.622 127.933C497.995 130.806 498.355 133.68 498.715 136.555C498.973 138.57 499.232 140.585 499.492 142.6C500.037 146.848 500.577 151.097 501.113 155.347C501.789 160.709 502.474 166.069 503.164 171.43C508.667 214.247 508.667 214.247 510.729 235.347C510.913 237.146 511.118 238.943 511.342 240.738C511.901 245.391 512.189 249.062 510.637 253.578C510.172 254.978 510.172 254.978 509.697 256.406C509.364 257.345 509.031 258.283 508.687 259.25C508.366 260.204 508.044 261.158 507.713 262.141C506.825 264.766 505.914 267.383 505 270C504.33 271.999 503.662 273.998 503 276C500.991 272.987 500.613 271.669 500.114 268.196C499.968 267.206 499.822 266.217 499.672 265.197C499.52 264.112 499.369 263.028 499.212 261.91C499.046 260.767 498.88 259.623 498.709 258.445C498.16 254.652 497.623 250.857 497.086 247.062C496.708 244.425 496.33 241.788 495.951 239.15C495.157 233.613 494.37 228.075 493.586 222.536C492.683 216.155 491.769 209.776 490.849 203.397C490.058 197.908 489.272 192.418 488.492 186.928C488.027 183.655 487.559 180.382 487.087 177.11C486.56 173.449 486.043 169.787 485.529 166.125C485.373 165.057 485.217 163.988 485.057 162.887C483.771 153.603 482.835 144.728 486.187 135.801C486.639 134.573 487.09 133.345 487.555 132.08C488.036 130.824 488.518 129.568 489 128.312C489.483 127.014 489.965 125.715 490.445 124.416C491.614 121.271 492.799 118.133 494 115Z" fill="white"/>
</svg>
